<svg width="103" height="17" viewBox="0 0 103 17" fill="none" xmlns="http://www.w3.org/2000/svg">
<g opacity="0.95">
<path fill-rule="evenodd" clip-rule="evenodd" d="M5.10054 0.678248C5.01981 0.709801 4.96117 0.762287 4.92551 0.834914C4.88159 0.924346 4.88078 1.05071 4.92355 1.14261C4.93946 1.17682 5.25854 1.73731 5.63262 2.38814C6.00668 3.03897 6.31558 3.57888 6.31905 3.58793C6.32409 3.60104 6.26796 3.61858 6.04344 3.67406C3.05474 4.41274 1.03207 5.50504 0.426647 6.70734C0.137659 7.28122 0.174841 7.88096 0.535457 8.46243C0.738908 8.79048 1.15125 9.20002 1.58346 9.5033C2.34159 10.0353 3.40356 10.5234 4.66764 10.9208C6.41677 11.4707 8.61768 11.883 10.8195 12.0733C11.0123 12.0899 11.1802 12.1075 11.1926 12.1123C11.2072 12.118 11.6653 12.8901 12.4752 14.274C13.1682 15.4581 13.7566 16.4575 13.7828 16.4949C13.8476 16.5873 13.9223 16.6537 14.0062 16.6934C14.1777 16.7745 14.3233 16.7021 14.3891 16.5028L14.4142 16.4269L14.4234 12.2312C14.4346 7.17336 14.4325 6.47555 14.4062 6.35645C14.3388 6.05218 14.2093 5.84815 13.9694 5.66843C13.9222 5.63302 12.9462 5.05698 11.8005 4.38833C10.1171 3.40583 9.72235 3.17107 9.74265 3.16464C9.77314 3.15498 10.2964 3.08713 10.6385 3.04848C11.4806 2.95335 12.2513 2.89527 13.279 2.84946C13.7078 2.83035 15.2514 2.82314 15.75 2.83791C16.5731 2.86229 17.1639 2.89526 17.8987 2.95782C18.5313 3.01166 19.4569 3.11715 19.451 3.13473C19.4492 3.13989 18.5017 3.69647 17.3454 4.37158C16.1891 5.04668 15.2095 5.62286 15.1686 5.65196C15.1276 5.68107 15.0531 5.74581 15.0031 5.79583C14.8512 5.9477 14.7631 6.11508 14.714 6.34481L14.6886 6.46356L14.6916 11.383C14.6932 14.0887 14.699 16.3385 14.7044 16.3826C14.7382 16.659 14.8861 16.7808 15.0941 16.7034C15.149 16.683 15.1792 16.6606 15.2524 16.5861C15.3419 16.495 15.3567 16.4704 16.6094 14.33C17.306 13.1398 17.881 12.1591 17.8873 12.1506C17.8955 12.1393 17.9901 12.1275 18.2378 12.1069C22.8057 11.7264 26.4981 10.6543 28.2232 9.20746C28.3596 9.09303 28.6126 8.83836 28.7076 8.71973C28.9511 8.41574 29.1009 8.11434 29.1684 7.79238C29.201 7.6369 29.204 7.36381 29.1749 7.2043C29.1159 6.88116 28.9361 6.52118 28.6837 6.22041C28.5593 6.07227 28.2966 5.81843 28.1271 5.68268C27.2478 4.97849 25.9113 4.36968 24.1408 3.86682C23.8541 3.78539 23.2255 3.62525 22.945 3.56215C22.8843 3.54852 22.8347 3.533 22.8347 3.52767C22.8347 3.52235 23.1383 2.98989 23.5093 2.34444C23.9198 1.63038 24.1925 1.14432 24.2057 1.10303C24.261 0.931256 24.1962 0.768541 24.0404 0.687612C23.9701 0.651095 23.811 0.646074 23.709 0.67714C23.6504 0.694986 23.16 0.976221 21.6575 1.85359L19.683 3.00658L19.5032 2.98525C19.0016 2.92573 18.2346 2.85608 17.6498 2.81694C15.3347 2.66199 13.0224 2.69048 10.7516 2.90193C10.4607 2.92901 9.72591 3.00948 9.56996 3.03133C9.50068 3.04103 9.49334 3.03981 9.43991 3.00955C9.40877 2.99191 8.50629 2.46531 7.43441 1.83931C6.29265 1.17249 5.458 0.691853 5.41903 0.678723C5.33067 0.648958 5.17605 0.64872 5.10054 0.678248ZM22.9828 3.84614C25.143 4.47082 26.5583 5.33437 26.9345 6.2573C27.1328 6.74362 27.0515 7.22173 26.687 7.71322C26.5829 7.85349 26.3136 8.12108 26.1424 8.25415C25.002 9.14097 22.9973 9.84417 20.3525 10.2851C19.7493 10.3857 18.8245 10.505 18.2378 10.5579C18.2005 10.5613 18.1509 10.5668 18.1275 10.5702L18.0851 10.5764L18.0908 7.75774L21.4607 5.90853L22.0763 4.83743C22.4149 4.24832 22.6952 3.76633 22.6993 3.76633C22.7035 3.76633 22.831 3.80225 22.9828 3.84614ZM7.06433 4.87985L7.65513 5.90781L11.023 7.75603L11.0326 9.14339C11.0379 9.90644 11.0393 10.5337 11.0357 10.5372C11.0222 10.5507 10.169 10.4504 9.62076 10.3708C7.23899 10.0253 5.26718 9.44675 3.97217 8.7135C3.7742 8.6014 3.43451 8.37451 3.2767 8.24895C3.10421 8.11173 2.85101 7.85591 2.74262 7.70937C2.51572 7.4026 2.41503 7.14321 2.40333 6.83537C2.39604 6.64315 2.41038 6.5309 2.46311 6.36734C2.57819 6.01047 2.85731 5.64833 3.2767 5.31181C3.42978 5.18897 3.76767 4.96289 3.97217 4.84645C4.33705 4.6387 4.86309 4.39805 5.35181 4.21529C5.71114 4.0809 6.43447 3.84316 6.46395 3.84973C6.46921 3.85091 6.73938 4.31446 7.06433 4.87985Z" fill="#1D1D1F"/>
<path fill-rule="evenodd" clip-rule="evenodd" d="M51.0004 3.88229C48.7068 3.982 46.9199 4.97682 46.0557 6.63514C45.8163 7.09442 45.6699 7.5252 45.5656 8.07673C45.503 8.40826 45.4904 9.2611 45.5428 9.62264C45.6295 10.2209 45.7802 10.7001 46.0414 11.2075C46.3293 11.7668 46.7323 12.2687 47.2183 12.6737C47.977 13.3056 49.0744 13.763 50.213 13.9218C52.101 14.1852 53.8383 13.8405 55.0225 12.9676C55.2888 12.7713 55.715 12.3469 55.9029 12.0909C56.2912 11.5618 56.5506 10.9442 56.6745 10.2539L56.7224 9.98638H56.0372C55.6604 9.98638 55.352 9.99332 55.352 10.0018C55.352 10.0103 55.3285 10.1328 55.2997 10.2742C55.0112 11.69 53.8915 12.6984 52.2994 12.9763C51.8664 13.0519 51.0662 13.0594 50.5847 12.9924C49.1489 12.7926 48.084 12.1533 47.4519 11.1119C46.6474 9.78637 46.6701 7.95755 47.5072 6.67373C48.2359 5.55621 49.4398 4.93613 51.064 4.84174C52.0107 4.78673 52.8848 4.94454 53.5903 5.29789C53.9885 5.49733 54.173 5.62836 54.4774 5.92785C54.7875 6.23295 54.9928 6.56039 55.1324 6.97251L55.1897 7.14139L55.8684 7.14833C56.4027 7.15376 56.547 7.14825 56.5466 7.12235C56.5452 7.0391 56.4414 6.63015 56.3812 6.47068C55.8895 5.16783 54.4623 4.22964 52.5422 3.94722C52.39 3.92482 52.1387 3.9004 51.9837 3.89291C51.8287 3.88546 51.6375 3.87595 51.5589 3.87177C51.4804 3.86761 51.229 3.87233 51.0004 3.88229ZM72.8237 3.8845C69.8642 4.00864 67.7766 5.67063 67.3936 8.20752C67.3363 8.58711 67.336 9.28233 67.3931 9.66161C67.5624 10.7877 68.0136 11.671 68.813 12.4416C69.3605 12.9694 70.0089 13.3554 70.8043 13.627C72.0598 14.0557 73.6932 14.1275 75.0969 13.8155C76.2798 13.5526 77.3377 12.9567 78.036 12.16C79.7784 10.1717 79.5822 7.00008 77.611 5.28968C76.4332 4.26772 74.8395 3.79995 72.8237 3.8845ZM38.6786 4.30249C38.4133 4.7977 33.7379 13.7201 33.7218 13.762C33.7064 13.8023 33.7623 13.8057 34.442 13.8057H35.1789L36.659 10.8438L42.2191 10.8451L43.72 13.8057H45.1963L44.6113 12.656C44.2896 12.0236 43.1741 9.83438 42.1323 7.79093L40.2382 4.07557L38.8076 4.06177L38.6786 4.30249ZM56.9888 5.02389H61.3275V13.8057H62.6784V5.02389H67.0171V4.06257H56.9888V5.02389ZM80.8905 13.8057H82.2414V9.25889H88.1909V8.29757H82.2414V5.02389H88.9443V4.06257H80.8905V13.8057ZM90.3212 13.8057H91.6722V4.06257H90.3212V13.8057ZM92.7374 5.02389H97.0761V13.8057H98.453V5.02389H102.766V4.06257H92.7374V5.02389ZM73.6693 4.84174C74.9771 4.91771 75.9549 5.31031 76.7094 6.06238C77.2715 6.62259 77.5965 7.23192 77.777 8.06374C77.8289 8.30329 77.8361 8.4094 77.8361 8.93412C77.8361 9.45846 77.8289 9.56514 77.777 9.8045C77.4782 11.184 76.6672 12.1594 75.3871 12.6788C75.0956 12.7971 74.5657 12.9331 74.1733 12.9903C73.8008 13.0447 72.8394 13.0525 72.4989 13.0039C71.4734 12.8576 70.7339 12.5603 70.0929 12.0366C68.7359 10.9278 68.3101 8.7992 69.1075 7.11116C69.6399 5.98426 70.6874 5.2099 72.0313 4.94987C72.4328 4.87216 72.506 4.8627 72.8626 4.84246C73.0412 4.83233 73.1991 4.8224 73.2134 4.8204C73.2276 4.8184 73.4328 4.82802 73.6693 4.84174ZM40.5937 7.58064C41.209 8.83622 41.7125 9.86777 41.7125 9.87299C41.7125 9.87819 40.6837 9.88245 39.4262 9.88245C38.1688 9.88245 37.14 9.87549 37.14 9.86697C37.14 9.84081 39.4578 5.28064 39.4666 5.28948C39.4712 5.29402 39.9784 6.32505 40.5937 7.58064Z" fill="#1D1D1F"/>
</g>
</svg>
