<svg xmlns="http://www.w3.org/2000/svg" width="19" height="20" viewBox="0 0 19 20" fill="none">
  <circle cx="9.80458" cy="10.0601" r="9.09682" fill="#F3F3F3"/>
  <path d="M9.77678 11.8742C11.8234 11.8742 13.4826 10.9403 13.4826 9.78831C13.4826 8.63629 11.8234 7.70239 9.77678 7.70239C7.73013 7.70239 6.071 8.63629 6.071 9.78831C6.071 10.9403 7.73013 11.8742 9.77678 11.8742Z" fill="#616161"/>
  <path d="M8.28029 9.15009C8.27617 9.14597 8.27274 9.14116 8.27 9.13636C8.16155 8.93868 8.05035 8.74238 7.94671 8.54332C7.76756 8.20082 7.53694 7.88646 7.1759 7.6373C7.13678 7.60984 7.07569 7.61328 7.04206 7.64416C6.83614 7.83086 6.83751 8.05187 6.87183 8.27769C6.91096 8.53646 6.99538 8.78699 7.09491 9.03477C7.10658 9.06429 7.36191 9.58045 7.37358 9.60722C7.40859 9.68684 7.45251 9.6134 7.51703 9.67654C7.63235 9.78774 7.52733 9.62506 7.65019 9.73214C7.66941 9.7493 7.69824 9.75685 7.72775 9.75548C7.94808 9.74381 8.16361 9.79048 8.38256 9.79666C8.40453 9.79735 8.42649 9.79185 8.44296 9.78156C8.54386 9.71635 8.46218 9.63193 8.45875 9.55505C8.4258 9.41297 8.39423 9.2702 8.28029 9.15009Z" fill="#37654B"/>
  <path d="M10.5605 8.81981C10.1974 9.29066 9.56931 9.41765 9.03256 8.9763C8.57955 8.6036 8.47522 7.96457 8.83832 7.49372C9.20141 7.02286 9.89054 6.88695 10.3552 7.24524C10.8199 7.60285 10.9235 8.34895 10.5605 8.81981Z" fill="#A60500"/>
  <path d="M10.4708 8.73675C10.1324 9.17535 9.48722 9.22957 9.0548 8.89599C8.62238 8.56241 8.55305 7.97212 8.89075 7.53352C9.22845 7.09493 9.85375 7.00981 10.2855 7.3434C10.7172 7.67698 10.8085 8.29815 10.4708 8.73675Z" fill="#D90500"/>
  <path d="M10.4107 8.69687C10.726 8.28795 10.6547 7.70446 10.2515 7.39361C9.84828 7.08275 9.26585 7.16224 8.9506 7.57115C8.63534 7.98006 8.70664 8.56355 9.10985 8.87441C9.51306 9.18527 10.0955 9.10578 10.4107 8.69687Z" fill="#FE5601"/>
  <path d="M9.05827 7.61993C8.94433 7.76544 8.87638 7.94802 8.87295 8.12991C8.87089 8.24454 8.89217 8.35642 9.02738 8.35024C9.13171 8.34544 9.2381 8.29739 9.33214 8.25552C9.40283 8.22395 9.47353 8.18894 9.5408 8.15051C9.5408 8.15051 9.25801 8.16629 9.23055 8.00774C9.2031 7.84918 9.29576 7.7627 9.44333 7.84095C9.59022 7.91919 9.62591 7.9947 9.62591 7.9947C9.61287 7.96724 9.6362 7.89654 9.63689 7.86566C9.63964 7.7929 9.64993 7.72632 9.66297 7.65494C9.67602 7.58081 9.68013 7.49913 9.64101 7.43461C9.56963 7.31655 9.4296 7.34538 9.32665 7.39686C9.22232 7.44971 9.13103 7.52727 9.05827 7.61993Z" fill="#A40400"/>
  <path d="M10.4528 7.89766C10.4432 7.87432 10.4322 7.85099 10.4205 7.82902C10.343 7.68694 10.2242 7.57163 10.0986 7.47004C10.0334 7.41719 9.94555 7.36434 9.87073 7.40209C9.8117 7.43161 9.79043 7.50436 9.77807 7.56888C9.75199 7.71302 9.73758 7.86883 9.75405 8.01435C9.76778 7.90384 9.89476 7.78304 10.0121 7.82422C10.0629 7.84206 10.102 7.89011 10.1082 7.94296C10.1261 8.08298 9.95928 8.13652 9.85495 8.16466C9.9634 8.23605 10.0718 8.30743 10.181 8.3795C10.2277 8.41039 10.2798 8.44196 10.3347 8.4351C10.4034 8.42686 10.4507 8.36166 10.4741 8.29645C10.5201 8.16878 10.505 8.02464 10.4528 7.89766Z" fill="#A40400"/>
  <path d="M9.47763 8.90836C9.77963 9.06761 10.1805 8.88983 10.2278 8.74157C10.256 8.65303 10.1311 8.5487 10.0762 8.49859C9.98692 8.41691 9.88877 8.34279 9.78581 8.27895C9.85102 8.33318 9.87298 8.43407 9.83523 8.51095C9.8016 8.57959 9.64098 8.67705 9.57646 8.59537C9.55862 8.57272 9.55862 8.54184 9.56068 8.51301C9.56686 8.42584 9.58264 8.33729 9.61147 8.25424L9.0658 8.45878C9.0658 8.45947 9.09737 8.70794 9.47763 8.90836Z" fill="#A40400"/>
  <path d="M9.43743 7.74894C9.42002 7.72875 9.40121 7.70716 9.39843 7.68069C9.39564 7.65423 9.41653 7.62359 9.443 7.62777C9.46111 7.63055 9.47294 7.64866 9.47573 7.66607C9.47852 7.68417 9.47294 7.70228 9.46737 7.719C9.46389 7.73014 9.45971 7.74128 9.45066 7.74825C9.44161 7.75521 9.42559 7.75382 9.42071 7.74337" fill="#FF7A42"/>
  <path d="M9.34158 7.68203C9.3395 7.66045 9.31373 7.64373 9.29423 7.65348C9.27334 7.66323 9.26985 7.69387 9.28169 7.71407C9.29284 7.73427 9.31442 7.7468 9.33462 7.75794C9.34785 7.73148 9.34367 7.69736 9.32417 7.67437" fill="#FF7A42"/>
  <path d="M9.25012 7.75164C9.23758 7.73562 9.22435 7.71891 9.20625 7.71055C9.18744 7.70219 9.16237 7.70637 9.15262 7.72448C9.14357 7.74258 9.15471 7.76557 9.17212 7.77601C9.18953 7.78646 9.21112 7.78785 9.23132 7.78855" fill="#FF7A42"/>
  <path d="M9.1913 7.84247C9.16762 7.8369 9.15021 7.8174 9.12863 7.80626C9.10704 7.79512 9.0743 7.79651 9.06525 7.8188C9.05689 7.83969 9.07779 7.86267 9.10007 7.86546C9.12236 7.86824 9.14395 7.85779 9.16345 7.84804" fill="#FF7A42"/>
  <path d="M9.13228 7.93405C9.11556 7.9229 9.09746 7.91176 9.07726 7.91107C9.05707 7.91037 9.03548 7.92499 9.03548 7.94519C9.03617 7.96608 9.06124 7.98001 9.08214 7.97653C9.10303 7.97305 9.11974 7.95773 9.13576 7.9431" fill="#FF7A42"/>
  <path d="M9.14573 8.03268C9.10464 8.0285 9.06147 8.04243 9.03082 8.07029C9.03848 8.09466 9.06564 8.11068 9.09071 8.1065C9.11579 8.10232 9.13529 8.07725 9.13459 8.05218" fill="#FF7A42"/>
  <path d="M9.18959 8.1203C9.17615 8.13445 9.15634 8.14081 9.14007 8.15213C9.12381 8.16345 9.11107 8.18467 9.11956 8.20235C9.13088 8.22499 9.16837 8.21862 9.1811 8.1974C9.19383 8.17618 9.191 8.1486 9.18676 8.12384" fill="#FF7A42"/>
  <path d="M9.43979 8.48136C9.42935 8.50573 9.41751 8.53219 9.39453 8.54612C9.37155 8.56005 9.33533 8.55378 9.32767 8.52802C9.3228 8.5106 9.33324 8.4918 9.34856 8.48205C9.36388 8.4723 9.38199 8.46882 9.4001 8.46673C9.41124 8.46534 9.42378 8.46394 9.43422 8.46952C9.44467 8.47509 9.45024 8.48971 9.44258 8.49807" fill="#FF7A42"/>
  <path d="M9.41713 8.59276C9.39839 8.60387 9.39492 8.6344 9.41157 8.64759C9.42962 8.66216 9.45807 8.65245 9.47126 8.63371C9.48444 8.61497 9.48653 8.59068 9.48792 8.56778C9.45807 8.56778 9.42962 8.58582 9.41713 8.61289" fill="#FF7A42"/>
  <path d="M9.5213 8.65149C9.51225 8.6696 9.5025 8.6884 9.50319 8.7086C9.50389 8.72879 9.51851 8.75038 9.53871 8.75108C9.55891 8.75177 9.57492 8.73158 9.57701 8.71138C9.5791 8.69119 9.57075 8.67169 9.56309 8.65288" fill="#FF7A42"/>
  <path d="M9.63432 8.6608C9.63919 8.68448 9.62944 8.70885 9.62875 8.73322C9.62805 8.7576 9.64268 8.78685 9.66705 8.78476C9.68934 8.78337 9.70117 8.75481 9.69421 8.73322C9.68725 8.71164 9.66844 8.69701 9.65103 8.68308" fill="#FF7A42"/>
  <path d="M9.74051 8.68238C9.73774 8.7025 9.73565 8.72332 9.74329 8.74137C9.75162 8.75941 9.77382 8.77329 9.79187 8.76427C9.81061 8.75455 9.81199 8.7261 9.8002 8.70875C9.7884 8.6914 9.76758 8.68307 9.74745 8.67474" fill="#FF7A42"/>
  <path d="M9.82867 8.62726C9.8426 8.66626 9.87324 8.69899 9.91155 8.71501C9.93035 8.6976 9.93314 8.66626 9.91851 8.64537C9.90389 8.62447 9.87324 8.61751 9.85026 8.62935" fill="#FF7A42"/>
  <path d="M9.88448 8.55136C9.90258 8.55762 9.91651 8.57225 9.93392 8.582C9.95133 8.59175 9.97501 8.59453 9.98685 8.57921C10.0022 8.55971 9.98058 8.52907 9.95621 8.52628C9.93183 8.5235 9.90885 8.53812 9.88865 8.55205" fill="#FF7A42"/>
  <path d="M10.063 8.20712C10.0895 8.20712 10.118 8.20712 10.1403 8.22244C10.1619 8.23776 10.1709 8.27397 10.1507 8.29069C10.1368 8.30183 10.1152 8.29974 10.0999 8.28999C10.0846 8.28024 10.0748 8.26422 10.0651 8.2489C10.0595 8.23915 10.0533 8.22801 10.0539 8.21687C10.0546 8.20572 10.0665 8.19388 10.0769 8.19737" fill="#FF7A42"/>
  <path d="M10.1868 8.18065C10.2042 8.19388 10.2335 8.18483 10.2397 8.16393C10.246 8.14165 10.2251 8.11936 10.2028 8.11449C10.1798 8.10961 10.1569 8.11797 10.1353 8.12563C10.1464 8.15279 10.175 8.17229 10.2049 8.17299" fill="#FF7A42"/>
  <path d="M10.1917 8.05564C10.2119 8.05703 10.2328 8.05773 10.2516 8.04937C10.2697 8.04101 10.2837 8.01873 10.2767 7.99993C10.2691 7.98112 10.244 7.97416 10.2252 7.98043C10.2057 7.98669 10.1911 8.00201 10.1771 8.01664" fill="#FF7A42"/>
  <path d="M10.1585 7.95196C10.1787 7.93803 10.2045 7.93734 10.2268 7.92828C10.2491 7.91923 10.27 7.89416 10.2588 7.87257C10.2484 7.85307 10.2177 7.85307 10.201 7.86769C10.1843 7.88232 10.178 7.9053 10.1725 7.92689" fill="#FF7A42"/>
  <path d="M10.1266 7.84552C10.1461 7.83997 10.1662 7.83373 10.1801 7.81915C10.194 7.80458 10.1974 7.77821 10.1815 7.76571C10.1655 7.75253 10.1384 7.76224 10.1273 7.78029C10.1162 7.79833 10.1162 7.82054 10.1169 7.84205" fill="#FF7A42"/>
  <path d="M10.0434 7.79045C10.074 7.76259 10.0915 7.72081 10.0908 7.67972C10.0671 7.66997 10.0371 7.67972 10.0239 7.70131C10.0107 7.7229 10.0162 7.75424 10.0357 7.77025" fill="#FF7A42"/>
  <path d="M9.95108 7.77189C9.94969 7.75239 9.95735 7.73358 9.95944 7.71478C9.96153 7.69528 9.95456 7.6723 9.93576 7.66742C9.91208 7.66116 9.89258 7.69319 9.89955 7.71687C9.90721 7.74055 9.92949 7.75587 9.95039 7.7684" fill="#FF7A42"/>
  <path d="M9.3531 10.5804C9.32907 10.4054 7.85541 9.37441 7.76687 9.24331C7.72088 9.17467 7.65361 9.12045 7.59596 9.05936C7.30493 8.73813 6.98782 8.44505 6.60482 8.23639C6.49431 8.17598 6.36116 8.06273 6.23898 8.16981C6.11406 8.27963 6.1978 8.43132 6.24173 8.56036C6.31242 8.7697 6.45107 8.94199 6.56638 9.12662C6.55952 9.24674 6.6817 9.28586 6.72219 9.37578C6.92468 9.61396 7.57948 10.5845 7.85404 10.7403C8.06407 10.6325 9.15473 10.7101 9.3531 10.5804Z" fill="#19432D"/>
  <path d="M7.4637 7.99468C7.57009 8.17657 7.71354 8.51221 7.72727 8.50672C7.86111 8.45455 7.99359 8.32826 8.10409 8.42435C8.20362 8.51084 8.09037 8.6186 8.04575 8.71263C8.00114 8.80735 7.90504 8.89109 7.95789 9.00434C7.98741 9.04278 8.03614 9.04965 8.07664 9.03249C8.14459 9.00366 7.76228 9.69553 8.11233 9.84104C8.40748 9.96391 9.27918 10.3304 9.68483 10.2323C9.86947 10.1877 9.77955 9.65229 9.8077 9.64817C9.87633 9.63788 9.43499 9.02562 9.50363 9.0167C9.54687 9.01121 8.93119 8.78402 8.92295 8.73734C8.91403 8.70302 8.90579 8.6687 8.89069 8.63507C8.86941 8.58977 8.83715 8.5479 8.82617 8.49917C8.82136 8.46691 8.82342 8.43533 8.83097 8.40376C8.84813 8.35434 8.86186 8.30423 8.86461 8.25276C8.86667 8.20814 8.86529 8.16421 8.85637 8.1196C8.84951 8.0942 8.82342 8.03037 8.77881 7.96653C8.73282 7.89995 8.66761 7.83338 8.62849 7.8018C8.52828 7.71944 8.41503 7.65011 8.38277 7.63432C8.04575 7.4641 7.79865 7.51901 7.75473 7.83475C7.72864 8.03174 7.59411 8.06469 7.4637 7.99468Z" fill="url(#paint0_linear_157_957)"/>
  <path d="M12.723 8.67634C12.8657 8.62349 12.9337 8.67977 12.9495 8.8246C12.9556 8.87745 12.9804 8.92756 12.9968 8.97904C13.0689 9.20005 13.1163 9.21996 13.3174 9.11494C13.3798 9.02159 13.4313 8.91658 13.4903 8.81911C13.5947 8.64751 13.7114 8.48072 13.7354 8.27481C13.7587 8.07507 13.6901 8.01673 13.5068 8.09223C13.1986 8.2199 12.9474 8.4313 12.723 8.67634Z" fill="#37654B"/>
  <path d="M13.0461 10.0126C13.0996 9.94261 13.4263 9.88358 13.6123 9.59942C13.7125 9.44636 13.764 9.39282 13.8381 9.22603C13.8704 9.15396 13.9136 9.0661 13.8484 9.00501C13.8189 8.97756 13.7249 8.95216 13.6295 9.00089C13.5224 9.0558 13.4291 9.14915 13.368 9.17455C13.1943 9.21024 13.1078 9.12444 13.0708 8.96452C13.0612 8.92333 13.0467 8.88284 13.033 8.84165C12.974 8.66251 12.8141 8.64672 12.7729 8.73526C12.753 8.76821 12.7523 8.819 12.6898 8.81008C12.6335 8.80253 12.6246 8.76341 12.6157 8.72154C12.5999 8.65084 12.5903 8.57808 12.569 8.50876C12.534 8.3907 12.4503 8.34746 12.3302 8.36736C12.2162 8.38658 12.2142 8.47718 12.2073 8.56161C12.2018 8.62819 12.21 8.69614 12.2046 8.76272C12.1949 8.87597 12.14 8.95628 12.0227 8.98236C11.8346 8.92402 11.9513 8.89794 11.7714 8.81214C11.5024 8.79978 11.4331 8.90343 11.512 9.19926C11.604 9.32624 11.7275 9.41547 11.8682 9.48205C11.9643 9.45391 12.0034 9.36399 12.0666 9.30084C12.2094 9.15807 12.2478 9.06816 12.5361 9.16357C12.8113 9.25485 12.9946 9.26241 13.0406 9.56853C13.0557 9.66394 12.9884 9.92888 13.0461 10.0126Z" fill="url(#paint1_linear_157_957)"/>
  <path d="M12.0555 9.14257C11.9608 8.80144 11.9601 7.99906 12.2339 7.99014C12.3211 8.00455 12.3115 7.91532 12.3383 7.86453C12.3492 7.82129 12.354 7.77667 12.3534 7.73137C12.352 7.6847 12.3438 7.64077 12.3177 7.6037C12.2758 7.56664 12.2271 7.56115 12.177 7.56321C12.0829 7.56527 12.0163 7.62841 11.9518 7.69568C11.8605 7.80413 11.8262 7.87277 11.7521 7.98602C11.6533 7.84325 11.6505 7.71902 11.6128 7.57007C11.575 7.41975 11.5215 7.35043 11.4082 7.49388C11.3073 7.62292 11.2703 7.54811 11.2455 7.43279C11.2284 7.35249 11.2263 7.266 11.203 7.18844C11.1666 7.06901 11.098 6.98321 10.973 7.00312C10.8564 7.02165 10.8344 7.11637 10.8385 7.23306C10.8413 7.30238 10.8392 7.37308 10.831 7.44172C10.8049 7.6593 10.6964 7.76569 10.5063 7.73412C10.358 7.70941 10.2064 7.67852 10.0794 7.57144C9.96544 7.49663 9.87346 7.52134 9.80414 7.64969C9.79384 7.66891 9.78698 7.6895 9.78149 7.71147C9.76982 7.76569 9.76913 7.81991 9.78149 7.87482C9.91465 8.0979 10.0746 9.05746 10.2297 9.262C10.3285 9.3931 10.3731 9.37869 10.4184 9.2119C10.4329 9.15905 10.5029 9.15081 10.5207 9.09864C10.6601 8.69162 11.017 8.56327 11.2716 8.89479C11.3231 8.96137 11.3547 9.05197 11.448 9.06021C11.5949 9.06501 11.7391 9.08629 11.8798 9.1364C11.9367 9.15561 11.9958 9.1865 12.0555 9.14257Z" fill="url(#paint2_linear_157_957)"/>
  <path d="M6.2855 10.7123C6.50103 10.5043 6.08714 10.0513 6.30266 9.8433C6.37748 9.84673 6.86275 10.1659 6.93002 10.1741C7.59306 10.2538 8.40643 10.7823 8.95485 10.6361C9.44698 10.5043 8.88827 10.3409 8.66588 10.1975C8.44349 10.054 7.96989 9.92566 8.2314 9.75338C8.37622 9.69504 8.6192 9.68474 8.82169 9.71083C10.0785 9.8735 11.4629 9.90782 12.8288 9.96273C13.1191 10.0156 13.056 10.0883 13.0148 10.1597C12.9722 10.2119 12.929 10.2647 12.8556 10.3148C12.7485 10.3835 12.5892 10.448 12.535 10.5214C12.511 10.5702 12.5213 10.6182 12.559 10.667C12.6455 10.7425 12.7135 10.8186 12.7272 10.8969C12.7389 10.9648 12.7299 11.0321 12.6846 11.0994C12.6181 11.179 12.5158 11.2552 12.3854 11.33C12.1163 11.4261 11.9605 11.5455 11.478 11.5977C11.1073 11.6004 10.8877 11.6704 10.6063 11.7144C8.93563 11.9731 7.52099 11.8352 7.30341 11.3547C7.16819 11.0534 6.93276 10.6059 6.2855 10.7123Z" fill="#6D8B14"/>
  <path d="M11.6086 9.11819C11.6752 9.14427 11.7335 9.19438 11.8049 9.20261C11.9518 9.2184 12.0582 9.0523 12.2037 9.03033C12.3917 9.0015 12.54 9.21703 12.7308 9.22389C12.8228 9.22732 12.9086 9.18065 12.9978 9.158C13.087 9.13603 13.2017 9.14976 13.2415 9.23281C13.3012 9.35568 13.1488 9.47579 13.1234 9.61032C13.0953 9.7579 13.2278 9.89723 13.214 10.0469C13.2065 10.1285 13.1557 10.2006 13.098 10.2583C12.9511 10.4052 12.7425 10.4882 12.5352 10.4827C12.3279 10.4772 12.1241 10.3825 11.9861 10.2267C11.912 10.143 11.8495 10.0373 11.7445 9.9995C11.682 9.97685 11.6127 9.98166 11.5482 9.96518C11.4336 9.93498 11.3464 9.83615 11.2997 9.72701C11.2558 9.62405 11.1823 9.4051 11.2153 9.29253C11.2592 9.14153 11.4727 9.06396 11.6086 9.11819Z" fill="url(#paint3_linear_157_957)"/>
  <path d="M5.91455 9.3375C5.87611 9.53449 5.94612 9.76992 6.01201 9.74178C6.06898 9.71707 6.23783 10.3279 6.32775 10.1804C6.34903 10.1454 6.65584 10.2078 6.76017 10.1104C6.84254 10.0328 6.72928 9.80698 6.73065 9.68961C6.73203 9.61823 7.3333 9.71775 7.23309 9.60313C7.16513 9.52488 6.38266 9.20914 6.38335 9.20914C6.52268 9.12746 6.44924 8.97646 6.49454 8.86458C6.43002 8.78565 6.36481 8.70671 6.30029 8.62778C5.93994 8.65523 5.97426 8.7527 6.02162 8.9593C6.06967 9.16521 5.94063 9.20708 5.91455 9.3375Z" fill="url(#paint4_linear_157_957)"/>
  <path d="M7.20378 9.60077C7.20584 9.57946 7.20722 9.55885 7.20928 9.53754C6.97081 9.31489 6.70898 9.11697 6.49388 8.86957C6.35025 8.94997 6.47258 9.11697 6.38255 9.21455C6.65607 9.34306 6.92958 9.47157 7.20378 9.60077Z" fill="url(#paint5_linear_157_957)"/>
  <path d="M9.8934 8.23697C9.66758 8.1951 9.65179 8.4573 9.65179 8.63988C9.56805 8.78745 9.59345 8.94463 9.61267 9.10044C9.62845 9.16222 9.66758 9.2082 9.71837 9.24321C9.92772 9.38735 10.0732 9.58846 10.2167 9.79231C10.5674 9.793 11.2888 10.1108 11.6402 10.1108C11.6883 10.0614 11.6601 10.0106 11.6375 9.96391C11.4227 9.52943 11.7068 9.26998 12.0226 9.14574C12.1015 9.11485 12.2134 9.13819 12.2477 9.02357C12.2065 8.79157 12.072 8.83687 11.8139 8.61585C11.5572 8.39553 11.3918 8.26031 11.087 8.29737C10.7727 8.33512 10.6031 8.55889 10.5379 8.93845C10.5331 8.96728 10.5304 8.9968 10.5235 9.05033C10.2455 8.81422 10.1192 8.27884 9.8934 8.23697Z" fill="url(#paint6_linear_157_957)"/>
  <path d="M10.6102 11.5475C9.93345 11.6745 9.29305 11.299 9.17019 10.5042C9.06655 9.83289 9.46877 9.20073 10.1462 9.07375C10.8237 8.94677 11.5231 9.36135 11.648 10.0292C11.773 10.697 11.2877 11.4212 10.6102 11.5475Z" fill="#A60500"/>
  <path d="M10.5948 11.4131C9.96465 11.5312 9.36544 11.0802 9.24876 10.4584C9.13207 9.8372 9.52811 9.27299 10.1582 9.15493C10.7883 9.03688 11.3937 9.44527 11.5097 10.0665C11.6257 10.6876 11.2255 11.2951 10.5948 11.4131Z" fill="#D90500"/>
  <path d="M10.5665 11.3266C11.1541 11.2166 11.5425 10.6577 11.4341 10.0783C11.3256 9.49894 10.7613 9.11842 10.1737 9.22842C9.58616 9.33841 9.19776 9.89727 9.30622 10.4767C9.41468 11.056 9.97894 11.4366 10.5665 11.3266Z" fill="#FE5601"/>
  <path d="M10.2347 9.34995C10.024 9.3877 9.82428 9.49272 9.68152 9.64784C9.5916 9.7453 9.52365 9.85787 9.64514 9.9574C9.73917 10.0343 9.86753 10.0748 9.98146 10.1105C10.0673 10.1379 10.1544 10.1619 10.2423 10.1812C10.2423 10.1812 9.98558 9.97593 10.0844 9.81806C10.1833 9.66019 10.3301 9.65676 10.396 9.83797C10.4626 10.0192 10.4352 10.1118 10.4352 10.1118C10.4455 10.0782 10.5196 10.035 10.5443 10.0089C10.6026 9.94779 10.663 9.89905 10.7289 9.84689C10.7976 9.79267 10.8642 9.72609 10.8799 9.64029C10.9095 9.48311 10.766 9.40005 10.6383 9.36505C10.5079 9.32936 10.3693 9.32593 10.2347 9.34995Z" fill="#A40400"/>
  <path d="M11.2253 10.6776C11.2349 10.6501 11.2431 10.622 11.25 10.5931C11.2932 10.4106 11.2788 10.2198 11.2493 10.0344C11.2342 9.93834 11.1992 9.82508 11.1052 9.79969C11.031 9.77978 10.9569 9.82577 10.8965 9.87244C10.7627 9.97677 10.6302 10.1003 10.532 10.239C10.6295 10.1539 10.832 10.1477 10.9013 10.274C10.9315 10.3282 10.9281 10.3996 10.8924 10.4511C10.7997 10.5856 10.6144 10.5032 10.5025 10.4469C10.541 10.5925 10.5801 10.738 10.6185 10.8835C10.635 10.9459 10.6556 11.0139 10.7084 11.0503C10.7743 11.0956 10.8649 11.0757 10.9356 11.0379C11.0743 10.9638 11.1724 10.8279 11.2253 10.6776Z" fill="#A40400"/>
  <path d="M9.60839 10.7835C9.74704 11.1535 10.2296 11.3093 10.3854 11.218C10.478 11.1638 10.4506 10.9771 10.4417 10.8913C10.4272 10.7519 10.3998 10.6119 10.36 10.4781C10.3744 10.5755 10.3154 10.6792 10.2241 10.7162C10.1424 10.7492 9.92825 10.7094 9.93511 10.5899C9.93717 10.557 9.96119 10.5302 9.98522 10.5069C10.058 10.4369 10.1397 10.3717 10.2282 10.3222L9.59878 10.0786C9.59878 10.0786 9.43405 10.3174 9.60839 10.7835Z" fill="#A40400"/>
  <path d="M10.4581 9.7505C10.4581 9.71986 10.4588 9.68643 10.4769 9.66136C10.495 9.63629 10.5368 9.62654 10.5563 9.65022C10.5695 9.66623 10.5668 9.6913 10.5549 9.70872C10.5431 9.72613 10.525 9.73796 10.5069 9.74841C10.495 9.75538 10.4825 9.76164 10.4693 9.76095C10.456 9.75955 10.4428 9.74632 10.447 9.73379" fill="#FF7A42"/>
  <path d="M10.4292 9.61109C10.4445 9.59089 10.434 9.55677 10.4104 9.5498C10.3846 9.54214 10.3581 9.56582 10.3526 9.59228C10.347 9.61875 10.356 9.64521 10.3644 9.67098C10.3964 9.65775 10.4187 9.62501 10.4194 9.59089" fill="#FF7A42"/>
  <path d="M10.2909 9.61153C10.2923 9.58785 10.2937 9.56348 10.2839 9.54259C10.2742 9.52169 10.2491 9.50498 10.2275 9.51334C10.2052 9.52169 10.1976 9.55094 10.2045 9.57323C10.2115 9.59551 10.2289 9.61292 10.2456 9.62964" fill="#FF7A42"/>
  <path d="M10.1689 9.65511C10.1529 9.63212 10.1522 9.60148 10.1424 9.57571C10.132 9.54925 10.1034 9.52488 10.0783 9.53811C10.0554 9.54995 10.0554 9.58546 10.0721 9.60496C10.0888 9.62446 10.1152 9.63212 10.1403 9.63839" fill="#FF7A42"/>
  <path d="M10.0503 9.68484C10.044 9.66255 10.0371 9.63888 10.0204 9.62286C10.0036 9.60684 9.973 9.60266 9.95838 9.62007C9.94236 9.63888 9.9542 9.67021 9.97509 9.68275C9.99599 9.69598 10.0218 9.69598 10.0468 9.69529" fill="#FF7A42"/>
  <path d="M9.98153 9.78077C9.9495 9.74525 9.90144 9.72436 9.85339 9.72505C9.84155 9.75221 9.85269 9.78703 9.87776 9.80236C9.90284 9.81768 9.93905 9.81211 9.95785 9.78912" fill="#FF7A42"/>
  <path d="M9.95526 9.8848C9.93298 9.8862 9.91139 9.87714 9.8891 9.87436C9.86682 9.87157 9.83966 9.87993 9.83339 9.90152C9.82573 9.92938 9.86264 9.95236 9.8898 9.944C9.91696 9.93564 9.93507 9.90988 9.95039 9.8855" fill="#FF7A42"/>
  <path d="M9.90376 10.3964C9.87591 10.4096 9.84526 10.4228 9.81532 10.4173C9.78537 10.4117 9.75821 10.3783 9.77144 10.3504C9.7805 10.3316 9.80418 10.3239 9.82507 10.3267C9.84596 10.3295 9.86407 10.3414 9.88148 10.3532C9.89262 10.3609 9.90376 10.3692 9.90864 10.3817C9.91351 10.3943 9.90655 10.4117 9.89332 10.4131" fill="#FF7A42"/>
  <path d="M9.7879 10.4803C9.76352 10.4754 9.73636 10.4991 9.74054 10.5234C9.74472 10.5499 9.77745 10.5638 9.80322 10.5576C9.82899 10.5513 9.84988 10.5318 9.86938 10.513C9.84431 10.49 9.80461 10.4837 9.77327 10.497" fill="#FF7A42"/>
  <path d="M9.83175 10.6098C9.81016 10.6182 9.78718 10.6272 9.77186 10.6454C9.75654 10.6635 9.75306 10.6927 9.76977 10.7094C9.78649 10.7254 9.81643 10.7206 9.83384 10.7045C9.85125 10.6885 9.85961 10.6655 9.86657 10.6433" fill="#FF7A42"/>
  <path d="M9.91811 10.7028C9.90419 10.7272 9.87703 10.7404 9.85753 10.7613C9.83803 10.7815 9.82828 10.8184 9.85056 10.8358C9.87076 10.8519 9.90349 10.8358 9.91394 10.8122C9.92438 10.7885 9.9202 10.7613 9.91533 10.7356" fill="#FF7A42"/>
  <path d="M10.0111 10.8019C9.99371 10.8172 9.9749 10.8332 9.96794 10.8555C9.96097 10.8778 9.97003 10.907 9.99231 10.9126C10.016 10.9189 10.039 10.8952 10.0418 10.8708C10.0445 10.8464 10.0334 10.8228 10.0223 10.8005" fill="#FF7A42"/>
  <path d="M10.1224 10.8144C10.1043 10.859 10.1057 10.9105 10.1266 10.9537C10.1558 10.953 10.183 10.9279 10.1865 10.8987C10.19 10.8694 10.1691 10.8395 10.1405 10.8318" fill="#FF7A42"/>
  <path d="M10.233 10.8005C10.2442 10.82 10.2449 10.8437 10.2518 10.8652C10.2588 10.8868 10.2783 10.9077 10.2999 10.9035C10.3284 10.8987 10.3333 10.8555 10.3138 10.8346C10.2943 10.813 10.2637 10.8081 10.2351 10.8047" fill="#FF7A42"/>
  <path d="M10.659 10.6387C10.6818 10.6587 10.7059 10.6815 10.7135 10.7112C10.7204 10.7409 10.7004 10.7789 10.67 10.7775C10.6493 10.7768 10.6327 10.7581 10.6272 10.7381C10.6217 10.7181 10.6251 10.6967 10.6293 10.6767C10.632 10.6635 10.6348 10.6497 10.6445 10.6407C10.6541 10.6318 10.6721 10.6304 10.679 10.6421" fill="#FF7A42"/>
  <path d="M10.7821 10.7075C10.787 10.7318 10.8197 10.7472 10.8406 10.7339C10.8629 10.7193 10.8629 10.6838 10.8469 10.6622C10.8309 10.6406 10.8051 10.6295 10.78 10.6197C10.7689 10.6525 10.7786 10.6908 10.8037 10.7137" fill="#FF7A42"/>
  <path d="M10.8824 10.6202C10.8991 10.6369 10.9166 10.6544 10.9388 10.6606C10.9611 10.6669 10.9904 10.6592 10.998 10.6369C11.0064 10.6147 10.9897 10.5896 10.9681 10.5805C10.9465 10.5708 10.9221 10.5729 10.8984 10.575" fill="#FF7A42"/>
  <path d="M10.9312 10.4924C10.9589 10.4958 10.9817 10.5151 11.0079 10.5241C11.0341 10.5338 11.0714 10.5283 11.0783 10.5006C11.0846 10.4758 11.0576 10.453 11.0321 10.4523C11.0065 10.4523 10.9837 10.4668 10.9623 10.4813" fill="#FF7A42"/>
  <path d="M10.9826 10.3759C11.0035 10.3863 11.0258 10.3961 11.0488 10.394C11.0718 10.3919 11.0954 10.3717 11.092 10.3487C11.0885 10.3243 11.0571 10.3125 11.0342 10.3195C11.0112 10.3264 10.9938 10.3466 10.9778 10.3647" fill="#FF7A42"/>
  <path d="M10.9568 10.2725C11.0049 10.2718 11.0522 10.2495 11.0836 10.2133C11.071 10.1868 11.0376 10.1715 11.0098 10.1806C10.9819 10.1889 10.9624 10.2203 10.9673 10.2495" fill="#FF7A42"/>
  <path d="M10.8969 10.1775C10.9108 10.1594 10.9317 10.1497 10.9484 10.1344C10.9651 10.119 10.977 10.0933 10.9644 10.0745C10.9484 10.0508 10.9073 10.0626 10.8955 10.0891C10.8837 10.1149 10.8913 10.1455 10.8997 10.1734" fill="#FF7A42"/>
  <path d="M10.0047 12.3118C10.0768 12.9968 9.01634 13.1794 8.57157 12.9206C8.12679 12.6618 7.96412 11.9123 8.3938 11.3735C8.84338 10.8107 9.93541 10.6267 10.1901 10.8498C10.6836 11.2815 9.8908 11.2335 10.0047 12.3118Z" fill="#6D8B14"/>
  <path d="M6.8957 9.4902C6.96228 9.51628 7.02063 9.56639 7.09201 9.57462C7.2389 9.59041 7.34528 9.42431 7.4908 9.40234C7.67887 9.37351 7.82712 9.58904 8.01794 9.5959C8.10991 9.59933 8.19571 9.55266 8.28494 9.53001C8.37417 9.50736 8.4888 9.52177 8.52861 9.60482C8.58832 9.72769 8.43595 9.8478 8.41055 9.98233C8.38241 10.1299 8.51488 10.2692 8.50115 10.4189C8.4936 10.5006 8.44281 10.5726 8.38515 10.6303C8.23827 10.7772 8.02961 10.8602 7.82232 10.8547C7.61503 10.8492 7.41118 10.7545 7.27321 10.5987C7.19908 10.515 7.13662 10.4093 7.03161 10.3715C6.96915 10.3489 6.89982 10.3537 6.8353 10.3372C6.72068 10.307 6.63351 10.2082 6.58683 10.099C6.5429 9.99606 6.46946 9.77711 6.50241 9.66454C6.54702 9.51354 6.7598 9.43597 6.8957 9.4902Z" fill="url(#paint7_linear_157_957)"/>
  <path d="M13.2628 10.9936C13.1118 10.9689 13.0006 11.0375 12.8833 11.078C12.7762 11.1144 12.7281 11.0972 12.7625 10.9977C12.8229 10.8233 12.9059 10.7684 12.9649 10.5941C12.9903 10.5186 13.0267 10.4252 12.9395 10.3813C12.8565 10.3394 12.7618 10.3964 12.6774 10.4397C12.5662 10.4959 12.4783 10.568 12.3994 10.6524C12.3335 10.7231 12.1907 10.8 12.0534 10.8048C11.9388 10.8089 11.8695 10.7067 11.8372 10.6408C11.8187 10.603 11.7947 10.568 11.772 10.5323C11.6718 10.3744 11.6443 10.3703 11.4467 10.4863C11.4288 10.522 11.4371 10.5701 11.3616 10.5756C11.2936 10.5804 11.2771 10.5447 11.2586 10.5069C11.2277 10.4424 11.2037 10.3758 11.1673 10.314C11.1055 10.209 10.9998 10.1857 10.8619 10.2303C10.7315 10.2729 10.7445 10.36 10.7507 10.4417C10.7555 10.5062 10.7768 10.5694 10.7816 10.6339C10.7898 10.7437 10.7548 10.8556 10.6052 10.8817C10.5001 10.8947 10.5063 10.8165 10.2798 10.7725C10.1727 10.752 10.0581 10.752 9.98467 10.8666C9.9277 10.9558 10.0128 11.1151 10.041 11.1679C10.089 11.2571 10.1 11.393 10.0972 11.4761C10.0904 11.6806 10.0032 11.8756 10.1288 11.8996C10.2373 11.8529 10.6244 11.8927 10.6889 11.8193C10.9106 11.5639 10.8118 11.8104 11.1673 11.8399C11.5078 11.8687 11.6183 11.4727 11.7253 11.7548C11.759 11.8426 11.9038 11.5784 11.9862 11.6463C12.1605 11.3807 12.5449 11.4129 12.7831 11.323" fill="url(#paint8_linear_157_957)"/>
  <path d="M7.33684 11.4151C7.14946 11.181 6.36424 10.6326 6.29835 10.4802C6.26952 10.4143 6.22971 10.3333 6.31825 10.2976C6.40268 10.264 6.50151 10.3162 6.59006 10.356C6.70606 10.4081 6.80078 10.4713 6.88314 10.5482C6.93188 10.5935 6.9607 10.6607 7.06778 10.6607C7.27438 10.728 7.39244 10.6772 7.46039 10.555C7.47824 10.5234 7.50226 10.4932 7.52422 10.4637C7.62238 10.3306 7.65052 10.3285 7.85712 10.4342C7.87703 10.4658 7.86948 10.507 7.94704 10.5138C8.01705 10.52 8.03352 10.4898 8.05068 10.4576C8.08019 10.4033 8.10285 10.3464 8.13854 10.2942C8.19894 10.2056 8.30739 10.1885 8.45016 10.231C8.58606 10.2715 8.57508 10.3464 8.57164 10.4164C8.5689 10.472 8.54899 10.5255 8.54556 10.5811C8.54007 10.6758 8.59567 10.7527 8.735 10.8001C8.97249 10.7939 8.83453 10.7472 9.06653 10.7163C9.39599 10.7651 9.46532 10.8653 9.32598 11.089C9.19488 11.1728 9.43717 11.6683 9.25597 11.6917C9.1434 11.6477 8.74599 11.6704 8.67735 11.6052C8.44123 11.3787 8.55105 11.5935 8.1859 11.6079C7.83653 11.6217 7.71092 11.2778 7.60865 11.5173C7.57708 11.5915 7.41989 11.3595 7.33684 11.4151Z" fill="url(#paint9_linear_157_957)"/>
  <path d="M8.5145 10.3922C8.3532 10.5439 8.57902 10.8596 8.90574 10.9324C8.9833 10.9496 9.16794 10.9242 9.34846 10.8796C9.51937 10.837 9.71979 10.8528 9.73283 10.8631C9.74313 10.8706 9.98679 10.7107 9.9106 10.664C9.86462 10.6359 9.60104 10.7224 9.44318 10.6784C9.29149 10.6366 9.17 10.4869 9.02242 10.4128C8.78082 10.2913 8.57833 10.3325 8.5145 10.3922Z" fill="#6E8C16"/>
  <path d="M9.77893 11.779C7.52279 11.7439 6.11983 10.6306 6.11983 9.84129C6.11983 11.8881 7.77881 13.2965 9.82561 13.2965C11.8724 13.2965 13.4868 11.851 13.4868 9.80423C13.4868 10.5929 12.2938 11.8181 9.77893 11.779Z" fill="url(#paint10_radial_157_957)"/>
  <path d="M6.00119 9.60177C6.00119 9.60177 5.9304 9.5736 5.81564 9.72204C5.6562 9.92889 5.7208 10.1612 5.80189 10.1914C5.88299 10.2223 6.15856 10.054 6.28982 10.21C6.42108 10.366 6.36748 10.1564 6.40252 10.1062C6.43757 10.056 6.42451 9.85192 6.42451 9.85192L6.17024 9.6217L6.00119 9.60177Z" fill="url(#paint11_linear_157_957)"/>
  <path opacity="0.2" d="M9.69189 7.2558C9.70287 7.2558 9.71385 7.2558 9.72415 7.25648C10.0467 7.27021 10.3645 7.49054 10.5155 7.8049C10.5403 7.85638 10.5856 7.89551 10.6405 7.91198C10.6597 7.91816 10.6803 7.9209 10.7002 7.9209C10.7366 7.9209 10.7723 7.91129 10.8045 7.89276C10.8958 7.83922 11.0111 7.72322 11.0406 7.4775C11.042 7.46858 11.0427 7.45965 11.0434 7.45004C11.0454 7.4624 11.0475 7.47475 11.0502 7.48711C11.0914 7.67998 11.1834 7.77745 11.3248 7.77745C11.3701 7.77745 11.4106 7.76509 11.4442 7.74725C11.4669 7.8557 11.4957 7.97787 11.5884 8.11103C11.6268 8.16594 11.6893 8.19889 11.7565 8.19889H11.7593C11.7963 8.1982 11.8327 8.1879 11.8636 8.16869C11.8663 8.24487 11.9116 8.31694 11.9858 8.34989C12.2542 8.46795 12.4882 8.6066 12.6825 8.76103C12.7202 8.79124 12.7655 8.80565 12.8101 8.80565C12.8637 8.80565 12.9165 8.78506 12.9563 8.74456C13.1437 8.55443 13.3297 8.41784 13.5226 8.32793C13.4944 8.43981 13.4292 8.54482 13.3551 8.66425C13.3428 8.68416 13.3304 8.70475 13.318 8.72466C13.292 8.7679 13.2673 8.81114 13.2439 8.85301C13.2206 8.89419 13.1986 8.934 13.1753 8.97107C13.1375 8.99784 13.1101 9.03627 13.097 9.0802C13.0806 9.13511 13.0881 9.19346 13.1169 9.24288L13.1252 9.2566C13.1293 9.26415 13.1341 9.27102 13.1382 9.27857C13.1746 9.34446 13.2432 9.38496 13.318 9.38496C13.3222 9.38496 13.327 9.38496 13.3311 9.38427C13.3606 9.38221 13.3867 9.37878 13.4121 9.37397C13.4244 9.37123 13.4368 9.3678 13.4485 9.36299C13.4931 9.34446 13.5343 9.31632 13.5768 9.28474C13.559 9.31289 13.5397 9.34103 13.5164 9.37397C13.4944 9.40555 13.4704 9.44055 13.443 9.48242C13.4169 9.52223 13.3846 9.55861 13.3441 9.59362C13.2975 9.63411 13.2714 9.69383 13.2734 9.7556C13.2734 9.76247 13.2741 9.77002 13.2748 9.77688C13.2748 9.781 13.2755 9.78443 13.2755 9.78855C13.2755 9.9018 13.2549 10.0164 13.2151 10.129C13.1911 10.1969 13.2041 10.2697 13.2453 10.3226C13.1485 11.0542 12.8211 11.6891 12.285 12.1792C11.6495 12.7592 10.7599 13.0791 9.77906 13.0791C8.87646 13.0791 8.03427 12.7832 7.40761 12.2472C6.77682 11.707 6.39313 10.9424 6.32861 10.0954C6.32449 10.0398 6.29773 9.98897 6.25517 9.95328C6.2181 9.92239 6.17143 9.90592 6.12407 9.90592C6.11652 9.90592 6.10966 9.90661 6.10211 9.90729C6.04445 9.91347 5.98748 9.92857 5.93532 9.94367C5.94149 9.91278 5.95591 9.87572 5.98611 9.8366C6.01631 9.79747 6.03347 9.78718 6.03415 9.78649C6.11172 9.7405 6.15084 9.6499 6.12956 9.56204C6.11583 9.5037 6.11377 9.43232 6.12476 9.37672C6.12613 9.3678 6.13917 9.34858 6.15153 9.32936C6.19957 9.25454 6.28057 9.12894 6.23115 8.9141L6.22703 8.89625C6.2236 8.88184 6.21948 8.86536 6.21673 8.84958C6.23526 8.84615 6.25997 8.84271 6.29223 8.83928C6.35675 8.8331 6.4151 8.79604 6.44804 8.74044C6.48168 8.68485 6.48648 8.61621 6.46108 8.55581C6.45422 8.54002 6.44736 8.52217 6.44118 8.50501C6.43432 8.48442 6.42677 8.46383 6.41853 8.44255C6.40961 8.41922 6.39725 8.38558 6.3897 8.3595C6.41029 8.37048 6.43432 8.38421 6.45147 8.39451C6.47207 8.40686 6.49266 8.41922 6.51188 8.42951C6.60317 8.47893 6.69308 8.53521 6.78712 8.60179C6.82281 8.62719 6.86399 8.63954 6.90586 8.63954C6.94498 8.63954 6.98479 8.62856 7.01911 8.60523C7.08981 8.55855 7.12482 8.47344 7.10628 8.39039C7.0953 8.33891 7.08707 8.29567 7.08089 8.25586C7.05206 8.0671 7.06441 7.95728 7.13237 7.86736C7.24836 7.95385 7.35338 8.05269 7.45153 8.16731C7.49066 8.2133 7.54763 8.2387 7.60734 8.2387C7.61421 8.2387 7.62107 8.23801 7.62862 8.23732C7.76864 8.22291 7.93063 8.11927 7.96495 7.87148C7.98142 7.75548 8.01917 7.7548 8.05898 7.7548H8.05967C8.09467 7.7548 8.17155 7.76441 8.29716 7.82687C8.31569 7.83648 8.41316 7.89482 8.5017 7.9662C8.50445 7.96895 8.50719 7.97101 8.50925 7.97307C8.547 8.00533 8.59436 8.02249 8.64241 8.02249C8.65476 8.02249 8.66643 8.02111 8.67879 8.01905L8.69526 8.01631C8.70693 8.01425 8.7186 8.01219 8.73026 8.01013C8.80508 7.99709 8.86617 7.94493 8.89019 7.87286C9.01443 7.50358 9.33565 7.2558 9.69189 7.2558ZM12.1491 7.80422V7.80559C12.1485 7.80559 12.1478 7.80628 12.1471 7.80628C12.1471 7.80559 12.1478 7.8049 12.1491 7.80422ZM11.0145 7.01419C11.0036 7.01419 10.9919 7.01488 10.9795 7.01694C10.8629 7.03547 10.8409 7.1295 10.845 7.24482C10.8478 7.31345 10.8457 7.38346 10.8375 7.45142C10.8217 7.58114 10.7757 7.67037 10.7009 7.71499C10.5231 7.34571 10.1463 7.06773 9.73307 7.05057C9.71934 7.04988 9.70561 7.04988 9.69189 7.04988C9.23201 7.04988 8.84077 7.37591 8.69663 7.80696C8.67879 7.80971 8.66163 7.81314 8.64378 7.81657C8.64104 7.81451 8.63829 7.81108 8.63554 7.80971C8.53533 7.72803 8.42277 7.65939 8.39051 7.64292C8.26696 7.58114 8.15508 7.54888 8.06104 7.54888C7.89974 7.54888 7.79061 7.6436 7.76315 7.84197C7.74599 7.96689 7.68422 8.02455 7.60872 8.0321C7.48929 7.89276 7.35132 7.76372 7.18385 7.64909C7.166 7.63674 7.14335 7.63056 7.12138 7.63056C7.09462 7.63056 7.06853 7.63949 7.05 7.65596C6.84409 7.84128 6.84546 8.06092 6.87978 8.28537C6.88733 8.33479 6.89694 8.38421 6.90792 8.43294C6.8132 8.36568 6.71505 8.30322 6.61209 8.24693C6.53453 8.20506 6.44598 8.13711 6.35813 8.13711C6.32038 8.13711 6.28331 8.14947 6.24693 8.18104C6.12201 8.29018 6.20575 8.44049 6.24968 8.56885C6.25723 8.59081 6.26547 8.61209 6.27439 8.63337C5.95522 8.66425 5.98817 8.76172 6.03347 8.95871C6.08083 9.16394 5.95179 9.20512 5.92639 9.33554C5.90786 9.42888 5.91472 9.53047 5.93326 9.60872C5.90443 9.62588 5.86874 9.65608 5.82687 9.70962C5.66831 9.91484 5.73215 10.1448 5.81314 10.1757C5.81863 10.1777 5.82481 10.1784 5.83304 10.1784C5.89482 10.1784 6.02592 10.1208 6.12682 10.1098C6.27096 11.9905 7.83179 13.2836 9.7818 13.2836C11.8979 13.2836 13.4842 11.8848 13.4842 9.85238C13.4842 9.96152 13.4594 10.0782 13.4114 10.1976C13.4588 10.0652 13.4842 9.92857 13.4842 9.78786C13.4842 9.77414 13.4828 9.76109 13.4821 9.74737C13.5308 9.70481 13.5775 9.6547 13.618 9.5943C13.7175 9.44261 13.7697 9.38907 13.8438 9.22366C13.8761 9.15159 13.9193 9.06442 13.8541 9.00401C13.837 8.98823 13.7971 8.97244 13.7477 8.97244C13.7134 8.97244 13.6743 8.97999 13.6352 8.9999C13.5281 9.05412 13.4347 9.14678 13.3736 9.17218C13.3551 9.1763 13.3373 9.17767 13.3208 9.17904C13.3132 9.16531 13.3043 9.1509 13.2961 9.13717C13.305 9.13305 13.3132 9.12894 13.3222 9.12413C13.3846 9.03147 13.4354 8.92714 13.4951 8.83036C13.5995 8.66014 13.7161 8.49472 13.7402 8.29018C13.7566 8.14741 13.7264 8.0774 13.6393 8.0774C13.6056 8.0774 13.5631 8.08769 13.5116 8.10897C13.2412 8.21948 13.0147 8.39451 12.8122 8.59973C12.6042 8.43432 12.3544 8.28606 12.0702 8.16114C12.108 8.06298 12.1629 7.99915 12.2391 7.99709C12.2452 7.99846 12.2514 7.99846 12.2569 7.99846C12.3249 7.99846 12.3187 7.91884 12.3434 7.87217C12.3544 7.82893 12.3592 7.785 12.3585 7.7397C12.3571 7.69371 12.3489 7.64978 12.3228 7.61272C12.2857 7.57977 12.2432 7.57222 12.1986 7.57222H12.1821C12.088 7.57428 12.0215 7.63674 11.9569 7.70401C11.8657 7.81177 11.8313 7.87972 11.7572 7.99229C11.6584 7.8502 11.6556 7.72666 11.6179 7.57908C11.5945 7.48711 11.565 7.42533 11.5197 7.42533C11.4916 7.42533 11.4573 7.44867 11.414 7.50358C11.3763 7.55094 11.3474 7.57085 11.3255 7.57085C11.2877 7.57085 11.2671 7.51456 11.252 7.44249C11.2349 7.36219 11.2328 7.27708 11.2095 7.2002C11.1765 7.0945 11.1175 7.01419 11.0145 7.01419Z" fill="#424242"/>
  <defs>
    <linearGradient id="paint0_linear_157_957" x1="7.46356" y1="8.89487" x2="9.81525" y2="8.89487" gradientUnits="userSpaceOnUse">
      <stop offset="0.0031888" stop-color="#2E7D32"/>
      <stop offset="0.327" stop-color="#318235"/>
      <stop offset="0.7217" stop-color="#3A913E"/>
      <stop offset="0.9988" stop-color="#43A047"/>
    </linearGradient>
    <linearGradient id="paint1_linear_157_957" x1="12.6823" y1="9.33049" x2="12.6823" y2="11.9427" gradientUnits="userSpaceOnUse">
      <stop stop-color="#7CB342"/>
      <stop offset="0.6322" stop-color="#8FC257"/>
      <stop offset="0.9853" stop-color="#9CCC65"/>
    </linearGradient>
    <linearGradient id="paint2_linear_157_957" x1="9.77318" y1="8.17464" x2="12.354" y2="8.17464" gradientUnits="userSpaceOnUse">
      <stop offset="0.0031888" stop-color="#2E7D32"/>
      <stop offset="0.327" stop-color="#318235"/>
      <stop offset="0.7217" stop-color="#3A913E"/>
      <stop offset="0.9988" stop-color="#43A047"/>
    </linearGradient>
    <linearGradient id="paint3_linear_157_957" x1="12.2318" y1="9.3401" x2="12.3691" y2="10.2324" gradientUnits="userSpaceOnUse">
      <stop offset="0.0031888" stop-color="#2E7D32"/>
      <stop offset="0.327" stop-color="#318235"/>
      <stop offset="0.7217" stop-color="#3A913E"/>
      <stop offset="0.9988" stop-color="#43A047"/>
    </linearGradient>
    <linearGradient id="paint4_linear_157_957" x1="5.90362" y1="9.41513" x2="7.24455" y2="9.41513" gradientUnits="userSpaceOnUse">
      <stop stop-color="#7CB342"/>
      <stop offset="0.6322" stop-color="#8FC257"/>
      <stop offset="0.9853" stop-color="#9CCC65"/>
    </linearGradient>
    <linearGradient id="paint5_linear_157_957" x1="6.79537" y1="9.33564" x2="6.79537" y2="11.9511" gradientUnits="userSpaceOnUse">
      <stop stop-color="#7CB342"/>
      <stop offset="0.6322" stop-color="#8FC257"/>
      <stop offset="0.9853" stop-color="#9CCC65"/>
    </linearGradient>
    <linearGradient id="paint6_linear_157_957" x1="10.9204" y1="9.32914" x2="10.9204" y2="11.9414" gradientUnits="userSpaceOnUse">
      <stop stop-color="#7CB342"/>
      <stop offset="0.6322" stop-color="#8FC257"/>
      <stop offset="0.9853" stop-color="#9CCC65"/>
    </linearGradient>
    <linearGradient id="paint7_linear_157_957" x1="7.51908" y1="9.71211" x2="7.65635" y2="10.6044" gradientUnits="userSpaceOnUse">
      <stop offset="0.0147" stop-color="#9CCC65"/>
      <stop offset="0.3678" stop-color="#8FC257"/>
      <stop offset="1" stop-color="#7CB342"/>
    </linearGradient>
    <linearGradient id="paint8_linear_157_957" x1="11.6136" y1="9.36023" x2="11.613" y2="11.8895" gradientUnits="userSpaceOnUse">
      <stop stop-color="#7CB342"/>
      <stop offset="0.6322" stop-color="#8FC257"/>
      <stop offset="0.9853" stop-color="#9CCC65"/>
    </linearGradient>
    <linearGradient id="paint9_linear_157_957" x1="7.82864" y1="9.32722" x2="7.82864" y2="11.9395" gradientUnits="userSpaceOnUse">
      <stop stop-color="#7CB342"/>
      <stop offset="0.6322" stop-color="#8FC257"/>
      <stop offset="0.9853" stop-color="#9CCC65"/>
    </linearGradient>
    <radialGradient id="paint10_radial_157_957" cx="0" cy="0" r="1" gradientUnits="userSpaceOnUse" gradientTransform="translate(9.80296 11.5504) scale(2.88246)">
      <stop stop-color="white"/>
      <stop offset="0.2581" stop-color="#F9F9F9"/>
      <stop offset="0.6037" stop-color="#E8E8E8"/>
      <stop offset="0.9977" stop-color="#CCCCCC"/>
      <stop offset="1" stop-color="#CCCCCC"/>
    </radialGradient>
    <linearGradient id="paint11_linear_157_957" x1="5.7177" y1="9.93329" x2="6.42692" y2="9.93329" gradientUnits="userSpaceOnUse">
      <stop stop-color="#7CB342"/>
      <stop offset="0.6322" stop-color="#8FC257"/>
      <stop offset="0.9853" stop-color="#9CCC65"/>
    </linearGradient>
  </defs>
</svg>