<svg xmlns="http://www.w3.org/2000/svg" width="19" height="19" viewBox="0 0 19 19" fill="none">
  <circle cx="9.80458" cy="9.78334" r="9.09682" fill="#F3F3F3"/>
  <path d="M5.92221 8.47124C5.92221 8.47124 5.06616 8.43832 4.88507 9.10505C4.65459 9.93642 6.16092 10.4303 6.16092 10.4303L5.98806 9.5907C5.98806 9.5907 5.61766 9.54954 5.41187 9.34376C5.20609 9.13798 5.4201 8.94043 5.88106 8.83342C5.88106 8.84165 5.92221 8.47124 5.92221 8.47124Z" fill="url(#paint0_linear_157_1051)"/>
  <path d="M13.6851 8.47124C13.6851 8.47124 14.5412 8.43832 14.7223 9.10505C14.9527 9.93642 13.4382 10.4303 13.4382 10.4303L13.611 9.5907C13.611 9.5907 13.9814 9.54954 14.1872 9.34376C14.393 9.13798 14.179 8.94043 13.718 8.83342C13.718 8.84165 13.6851 8.47124 13.6851 8.47124Z" fill="url(#paint1_linear_157_1051)"/>
  <path d="M13.6852 9.3567C13.6852 9.33201 10.0469 9.66949 9.78354 9.69418C9.52837 9.66949 5.88191 9.32378 5.88191 9.3567C5.88191 9.3567 5.79959 13.5958 9.76708 13.5958H9.8C13.5617 13.5958 13.6852 9.3567 13.6852 9.3567Z" fill="url(#paint2_radial_157_1051)"/>
  <path d="M9.80025 11.851C11.9823 11.851 13.7513 10.5354 13.7513 8.91245C13.7513 7.28952 11.9823 5.97388 9.80025 5.97388C7.61816 5.97388 5.84923 7.28952 5.84923 8.91245C5.84923 10.5354 7.61816 11.851 9.80025 11.851Z" fill="url(#paint3_linear_157_1051)"/>
  <path d="M9.74862 11.5041C11.7943 11.5041 13.4527 10.3358 13.4527 8.89475C13.4527 7.45366 11.7943 6.28543 9.74862 6.28543C7.70292 6.28543 6.04454 7.45366 6.04454 8.89475C6.04454 10.3358 7.70292 11.5041 9.74862 11.5041Z" fill="url(#paint4_linear_157_1051)"/>
  <path d="M13.4033 8.95569C13.4033 10.3715 11.7571 11.5074 9.72393 11.5074C7.6908 11.5074 6.04454 10.3632 6.04454 8.95569C6.04454 8.80753 6.061 8.65936 6.10216 8.51943C6.39849 8.17372 6.77713 7.8527 7.22162 7.51521C7.80604 7.06249 8.87611 6.81555 9.69101 6.81555C10.5553 6.81555 11.2632 7.20242 11.9546 7.49052C12.572 7.74569 13.0576 8.16548 13.3869 8.67583C13.3951 8.76637 13.4033 8.85691 13.4033 8.95569Z" fill="url(#paint5_radial_157_1051)"/>
  <path d="M12.269 9.8498C12.5159 9.86627 12.8122 9.80865 12.9522 9.59463C13.0756 9.40531 13.0098 9.16661 12.911 8.97729C12.697 8.59042 12.3266 8.28586 11.8821 8.14593C11.3471 7.9813 10.6392 8.21178 10.9026 8.82089C11.1331 9.37239 11.6105 9.80042 12.269 9.8498Z" fill="#5BA744"/>
  <path d="M12.2946 9.68705C12.5415 9.70352 12.8378 9.6459 12.9778 9.43188C13.1012 9.24256 13.0354 9.00386 12.9366 8.81454C12.7226 8.42767 12.3522 8.12311 11.9077 7.98318C11.3727 7.81855 10.6648 8.04903 10.9282 8.65814C11.1669 9.20964 11.6443 9.63767 12.2946 9.68705Z" fill="url(#paint6_radial_157_1051)"/>
  <path d="M10.1953 8.23687C10.3435 8.36857 10.4752 8.54966 10.4752 8.74721C10.4752 8.94476 10.3188 9.15877 10.1212 9.14231C10.0142 9.13408 9.91544 9.06823 9.81666 9.01884C9.71789 8.96945 9.59442 8.95299 9.52034 9.0353C9.45449 9.10115 9.46272 9.21639 9.52034 9.29047C9.57796 9.36456 9.66027 9.41394 9.74258 9.44687C10.0142 9.55388 10.3352 9.57857 10.5986 9.46333C10.862 9.34809 11.0761 9.08469 11.0925 8.78837C11.109 8.47558 10.9114 8.18748 10.6563 8.00639C10.4752 7.88292 9.70142 7.52075 9.50387 7.67714C9.34748 7.79238 10.1048 8.14632 10.1953 8.23687Z" fill="url(#paint7_linear_157_1051)"/>
  <path d="M7.26328 9.30716C7.42791 9.30716 7.59253 9.24131 7.74893 9.159C8.11934 8.96145 8.44036 8.66512 8.67083 8.29471C8.76961 8.13832 8.84369 7.949 8.76961 7.78437C8.69553 7.62798 8.50621 7.56213 8.34158 7.55389C7.76539 7.51274 7.27151 7.82553 6.9258 8.27825C6.60478 8.65689 6.6624 9.31539 7.26328 9.30716Z" fill="#5BA744"/>
  <path d="M7.28085 9.18825C7.44548 9.18825 7.59364 9.13063 7.74181 9.05654C8.09575 8.87546 8.40031 8.60382 8.61432 8.27457C8.70487 8.13464 8.77895 7.96178 8.7131 7.80539C8.64725 7.65722 8.46616 7.60784 8.30153 7.59137C7.75004 7.55022 7.28908 7.83831 6.9516 8.24988C6.6635 8.59559 6.71289 9.19648 7.28085 9.18825Z" fill="url(#paint8_radial_157_1051)"/>
  <path d="M10.7608 7.39137C10.9092 7.33368 11.0905 7.39137 11.1894 7.51499C11.2388 7.57268 11.2636 7.64685 11.2388 7.72103C11.2059 7.8364 11.0658 7.86937 10.9504 7.88585C10.8103 7.91058 10.596 7.9353 10.5466 7.77047C10.5136 7.62213 10.6372 7.44082 10.7608 7.39137Z" fill="#573014"/>
  <path d="M8.56435 10.581C8.72075 10.5563 8.88537 10.5645 9.0253 10.6304C9.16524 10.6962 9.2887 10.8197 9.3134 10.9761C8.85245 11.009 8.39149 10.9843 7.93054 10.902C7.91408 10.7209 8.41619 10.6057 8.56435 10.581Z" fill="url(#paint9_linear_157_1051)"/>
  <path d="M7.3126 10.0969C7.42798 10.2288 7.61753 10.2864 7.7906 10.2452C7.96367 10.204 8.10377 10.0557 8.12849 9.88262C8.13674 9.80845 8.12849 9.73428 8.09553 9.66835C8.0296 9.56121 7.89774 9.52 7.77412 9.50352C7.38678 9.46232 6.9335 9.68483 7.3126 10.0969Z" fill="#E5C37F"/>
  <path d="M11.732 10.0888C11.806 10.1465 11.8719 10.2123 11.8966 10.2946C11.9213 10.3769 11.913 10.484 11.8472 10.5416C11.7649 10.6157 11.6332 10.5992 11.5262 10.5745C11.378 10.5416 11.2381 10.4922 11.1064 10.4346C10.9994 10.3852 10.8924 10.3358 10.8265 10.237C10.4808 9.74313 11.5344 9.94069 11.732 10.0888Z" fill="url(#paint10_linear_157_1051)"/>
  <path d="M9.30316 10.3426C9.19615 10.3508 9.07268 10.3344 9.0233 10.2438C8.98214 10.1697 9.0233 10.0792 9.08091 10.0216C9.14676 9.96396 9.22908 9.9475 9.30316 9.93103C9.48425 9.88988 10.2662 9.73348 10.2991 9.99688C10.3403 10.3673 9.50071 10.3344 9.30316 10.3426Z" fill="#367E40"/>
  <path d="M8.70327 9.37661C8.64558 9.32716 8.58789 9.25299 8.61261 9.18706C8.6291 9.12937 8.69503 9.09641 8.75272 9.10465C8.8104 9.11289 8.86809 9.13761 8.91754 9.17058C9.03292 9.24475 9.51092 9.56616 9.3873 9.7145C9.21423 9.92054 8.80216 9.47551 8.70327 9.37661Z" fill="#367E40"/>
  <path d="M10.2597 11.1499C10.3602 11.1499 10.4416 11.0684 10.4416 10.9679C10.4416 10.8674 10.3602 10.7859 10.2597 10.7859C10.1592 10.7859 10.0777 10.8674 10.0777 10.9679C10.0777 11.0684 10.1592 11.1499 10.2597 11.1499Z" fill="#5BA744"/>
  <path d="M11.5431 7.74133C11.6436 7.74133 11.7251 7.65987 11.7251 7.55937C11.7251 7.45888 11.6436 7.37741 11.5431 7.37741C11.4426 7.37741 11.3611 7.45888 11.3611 7.55937C11.3611 7.65987 11.4426 7.74133 11.5431 7.74133Z" fill="#5BA744"/>
  <path d="M9.46916 8.16916C9.56966 8.16916 9.65112 8.08769 9.65112 7.9872C9.65112 7.8867 9.56966 7.80524 9.46916 7.80524C9.36867 7.80524 9.2872 7.8867 9.2872 7.9872C9.2872 8.08769 9.36867 8.16916 9.46916 8.16916Z" fill="#5BA744"/>
  <path d="M11.9151 10.8104C12.0156 10.8104 12.0971 10.7289 12.0971 10.6284C12.0971 10.5279 12.0156 10.4465 11.9151 10.4465C11.8146 10.4465 11.7332 10.5279 11.7332 10.6284C11.7332 10.7289 11.8146 10.8104 11.9151 10.8104Z" fill="#5BA744"/>
  <path d="M6.44893 8.76438C6.54942 8.76438 6.63089 8.68291 6.63089 8.58241C6.63089 8.48192 6.54942 8.40045 6.44893 8.40045C6.34843 8.40045 6.26697 8.48192 6.26697 8.58241C6.26697 8.68291 6.34843 8.76438 6.44893 8.76438Z" fill="#5BA744"/>
  <path d="M8.5345 7.52744C8.635 7.52744 8.71646 7.44597 8.71646 7.34547C8.71646 7.24498 8.635 7.16351 8.5345 7.16351C8.43401 7.16351 8.35254 7.24498 8.35254 7.34547C8.35254 7.44597 8.43401 7.52744 8.5345 7.52744Z" fill="#5BA744"/>
  <path opacity="0.2" d="M9.79883 6.22545C11.6179 6.22545 13.1901 7.21321 13.4618 8.51376C13.4782 8.57961 13.5111 8.63722 13.5688 8.67015C13.5194 8.71954 13.5029 8.78539 13.5029 8.85124V8.87593V8.91709C13.5029 9.07348 13.4865 9.23811 13.4453 9.3945C13.4453 9.41097 13.4371 9.4192 13.4371 9.43566C13.4371 9.46859 13.4288 9.50974 13.4288 9.5509C13.4206 9.62498 13.4535 9.70729 13.5111 9.75668C13.5605 9.79784 13.6182 9.82253 13.6758 9.82253C13.6922 9.82253 13.7087 9.82253 13.7252 9.8143C13.8816 9.78138 14.1697 9.70729 14.3672 9.50974C14.4413 9.43566 14.4824 9.35335 14.4989 9.2875C14.4907 9.3945 14.4331 9.56736 14.1697 9.76491C13.9063 9.9707 13.577 10.1024 13.4453 10.1518C13.3712 10.1765 13.3136 10.2423 13.2971 10.3246C13.1654 10.8761 12.8856 11.6663 12.3258 12.2919C11.7003 12.9834 10.8524 13.3373 9.80706 13.3373H9.7906H9.78237H9.77414C8.65468 13.3373 7.7657 12.9834 7.14835 12.2755C6.59686 11.6499 6.34992 10.8597 6.24291 10.3082C6.22645 10.2259 6.16883 10.16 6.09475 10.1271C5.85604 10.0365 5.13992 9.70729 5.10699 9.29573C5.12345 9.36158 5.16461 9.43566 5.23869 9.50974C5.41155 9.69083 5.66672 9.77314 5.83958 9.80607C5.85604 9.8143 5.8725 9.8143 5.88897 9.8143C5.94658 9.8143 6.0042 9.79784 6.05359 9.75668C6.11121 9.70729 6.14414 9.63321 6.1359 9.55913C6.1359 9.48505 6.12767 9.42743 6.12767 9.3945C6.12767 9.36981 6.12767 9.33689 6.12767 9.30396C6.10298 9.17226 6.08652 9.04056 6.08652 8.91709C6.08652 8.90063 6.08652 8.8924 6.08652 8.88416V8.85947C6.08652 8.79362 6.06182 8.72777 6.02067 8.67838C6.07005 8.64546 6.11121 8.58784 6.12767 8.52199C6.40754 7.20498 7.97972 6.22545 9.79883 6.22545ZM9.79883 5.97852C7.82332 5.97852 6.18529 7.05682 5.8972 8.46437C5.74903 8.46437 5.04937 8.50552 4.88475 9.09818C4.70366 9.75668 5.6091 10.2012 5.99597 10.3576C6.24291 11.6087 7.06604 13.5842 9.77414 13.5842H9.80706C12.3505 13.5842 13.2313 11.6416 13.5358 10.3823C13.8569 10.2588 14.9187 9.79784 14.7294 9.08995C14.5565 8.48083 13.8486 8.45614 13.7169 8.45614C13.4124 7.05682 11.7743 5.97852 9.79883 5.97852ZM13.6675 9.57559C13.6758 9.52621 13.6758 9.48505 13.6758 9.45212C13.7169 9.27927 13.7416 9.09818 13.7416 8.91709C13.7416 8.8924 13.7416 8.8677 13.7416 8.84301C14.1779 8.94178 14.3837 9.13933 14.1779 9.34512C14.0297 9.49328 13.7828 9.5509 13.6675 9.57559ZM5.8972 9.56736C5.77373 9.54267 5.55971 9.47682 5.41978 9.33688C5.22223 9.13933 5.41978 8.94178 5.85604 8.83478V8.90886C5.85604 9.05702 5.8725 9.20518 5.8972 9.34512C5.92189 9.48505 5.88897 9.43566 5.8972 9.56736Z" fill="#424242"/>
  <defs>
    <linearGradient id="paint0_linear_157_1051" x1="4.85075" y1="9.32746" x2="6.26227" y2="9.47358" gradientUnits="userSpaceOnUse">
      <stop stop-color="#F1331E"/>
      <stop offset="0.2943" stop-color="#EF331E"/>
      <stop offset="0.4654" stop-color="#E6331D"/>
      <stop offset="0.6049" stop-color="#D8321C"/>
      <stop offset="0.7274" stop-color="#C4311A"/>
      <stop offset="0.8388" stop-color="#AA3017"/>
      <stop offset="0.9406" stop-color="#8B2F14"/>
      <stop offset="1" stop-color="#752E12"/>
    </linearGradient>
    <linearGradient id="paint1_linear_157_1051" x1="14.7547" y1="9.32722" x2="13.3424" y2="9.47342" gradientUnits="userSpaceOnUse">
      <stop stop-color="#F1331E"/>
      <stop offset="0.2943" stop-color="#EF331E"/>
      <stop offset="0.4654" stop-color="#E6331D"/>
      <stop offset="0.6049" stop-color="#D8321C"/>
      <stop offset="0.7274" stop-color="#C4311A"/>
      <stop offset="0.8388" stop-color="#AA3017"/>
      <stop offset="0.9406" stop-color="#8B2F14"/>
      <stop offset="1" stop-color="#752E12"/>
    </linearGradient>
    <radialGradient id="paint2_radial_157_1051" cx="0" cy="0" r="1" gradientUnits="userSpaceOnUse" gradientTransform="translate(9.78348 11.4752) scale(3.12815 3.1816)">
      <stop stop-color="#F1331E"/>
      <stop offset="0.4224" stop-color="#EF331D"/>
      <stop offset="0.6678" stop-color="#E6321B"/>
      <stop offset="0.8673" stop-color="#D83016"/>
      <stop offset="1" stop-color="#CA2E12"/>
    </radialGradient>
    <linearGradient id="paint3_linear_157_1051" x1="5.93887" y1="8.91245" x2="14.3283" y2="8.91245" gradientUnits="userSpaceOnUse">
      <stop stop-color="#F1E9E6"/>
      <stop offset="0.2188" stop-color="#D6D0CD"/>
      <stop offset="0.5503" stop-color="#B3B0AD"/>
      <stop offset="0.8227" stop-color="#9E9C99"/>
      <stop offset="1" stop-color="#969592"/>
    </linearGradient>
    <linearGradient id="paint4_linear_157_1051" x1="9.74862" y1="6.25128" x2="9.74862" y2="11.4339" gradientUnits="userSpaceOnUse">
      <stop stop-color="#F1E9E6"/>
      <stop offset="0.2725" stop-color="#DCD6D3"/>
      <stop offset="0.8312" stop-color="#A7A5A2"/>
      <stop offset="1" stop-color="#969592"/>
    </linearGradient>
    <radialGradient id="paint5_radial_157_1051" cx="0" cy="0" r="1" gradientUnits="userSpaceOnUse" gradientTransform="translate(9.72393 9.50791) scale(3.06935)">
      <stop offset="0.1773" stop-color="#AD441F"/>
      <stop offset="0.3545" stop-color="#A73D1E"/>
      <stop offset="0.6159" stop-color="#96291A"/>
      <stop offset="0.9279" stop-color="#7A0915"/>
      <stop offset="1" stop-color="#730013"/>
    </radialGradient>
    <radialGradient id="paint6_radial_157_1051" cx="0" cy="0" r="1" gradientUnits="userSpaceOnUse" gradientTransform="translate(11.9679 8.80999) rotate(-27.6222) scale(1.03509 0.941432)">
      <stop offset="0.2759" stop-color="#F0D5BB"/>
      <stop offset="0.4823" stop-color="#E9C9A9"/>
      <stop offset="0.7955" stop-color="#E1BA94"/>
      <stop offset="1" stop-color="#DEB58C"/>
    </radialGradient>
    <linearGradient id="paint7_linear_157_1051" x1="9.47399" y1="8.58889" x2="11.0961" y2="8.58889" gradientUnits="userSpaceOnUse">
      <stop stop-color="#AD441F"/>
      <stop offset="0.1043" stop-color="#B84B1F"/>
      <stop offset="0.4847" stop-color="#DB6220"/>
      <stop offset="0.7968" stop-color="#F07021"/>
      <stop offset="1" stop-color="#F87521"/>
    </linearGradient>
    <radialGradient id="paint8_radial_157_1051" cx="0" cy="0" r="1" gradientUnits="userSpaceOnUse" gradientTransform="translate(7.75387 8.3879) scale(0.892857)">
      <stop offset="0.2759" stop-color="#F0D5BB"/>
      <stop offset="0.4823" stop-color="#E9C9A9"/>
      <stop offset="0.7955" stop-color="#E1BA94"/>
      <stop offset="1" stop-color="#DEB58C"/>
    </radialGradient>
    <linearGradient id="paint9_linear_157_1051" x1="7.93015" y1="10.7792" x2="9.3134" y2="10.7792" gradientUnits="userSpaceOnUse">
      <stop stop-color="#AD441F"/>
      <stop offset="0.1043" stop-color="#B84B1F"/>
      <stop offset="0.4847" stop-color="#DB6220"/>
      <stop offset="0.7968" stop-color="#F07021"/>
      <stop offset="1" stop-color="#F87521"/>
    </linearGradient>
    <linearGradient id="paint10_linear_157_1051" x1="10.7535" y1="10.2586" x2="11.9132" y2="10.2586" gradientUnits="userSpaceOnUse">
      <stop stop-color="#AD441F"/>
      <stop offset="0.1043" stop-color="#B84B1F"/>
      <stop offset="0.4847" stop-color="#DB6220"/>
      <stop offset="0.7968" stop-color="#F07021"/>
      <stop offset="1" stop-color="#F87521"/>
    </linearGradient>
  </defs>
</svg>