<svg xmlns="http://www.w3.org/2000/svg" width="19" height="19" viewBox="0 0 19 19" fill="none">
  <circle cx="9.80458" cy="9.79128" r="9.09682" fill="#F3F3F3"/>
  <path d="M8.49741 11.9606C10.0915 11.9606 11.3837 10.6683 11.3837 9.07427C11.3837 7.4802 10.0915 6.18796 8.49741 6.18796C6.90334 6.18796 5.6111 7.4802 5.6111 9.07427C5.6111 10.6683 6.90334 11.9606 8.49741 11.9606Z" fill="#252525"/>
  <path d="M10.3658 11.2007L10.646 10.9206L10.8551 11.1297L10.5749 11.4099L10.3658 11.2007Z" fill="#504F4F"/>
  <path d="M11.2498 11.4026L11.0834 11.2705L10.7239 11.6294L10.8535 11.7939C11.1583 12.1795 11.7866 12.8121 12.1677 13.1215L12.4414 13.3438C12.5399 13.4289 12.6885 13.4257 12.7825 13.3323C12.8759 13.239 12.8791 13.0903 12.794 12.9912L12.5697 12.7143C12.2629 12.3338 11.6328 11.7069 11.2498 11.4026ZM12.6745 13.2193C12.6345 13.2593 12.5704 13.2593 12.5304 13.2193C12.4903 13.1793 12.4903 13.1151 12.5304 13.0751C12.5704 13.0351 12.6345 13.0351 12.6745 13.0751C12.7146 13.1151 12.7146 13.1793 12.6745 13.2193Z" fill="url(#paint0_radial_157_945)"/>
  <path d="M10.8323 11.0942L10.5429 11.3835C10.5238 11.4026 10.5238 11.4338 10.5429 11.4529L10.7235 11.6335L11.0822 11.2748L10.9016 11.0942C10.8819 11.0751 10.8513 11.0751 10.8323 11.0942Z" fill="#333333"/>
  <path d="M8.49741 6.25846C10.0498 6.25846 11.3126 7.52122 11.3126 9.07363C11.3126 10.626 10.0498 11.8888 8.49741 11.8888C6.945 11.8888 5.68224 10.626 5.68224 9.07363C5.68224 7.52122 6.945 6.25846 8.49741 6.25846ZM8.49741 6.18796C6.90371 6.18796 5.6111 7.47994 5.6111 9.07427C5.6111 10.6686 6.90308 11.9606 8.49741 11.9606C10.0917 11.9606 11.3837 10.6686 11.3837 9.07427C11.3837 7.47994 10.0911 6.18796 8.49741 6.18796Z" fill="#595858"/>
  <path d="M8.49916 11.3782C9.77189 11.3782 10.8036 10.3464 10.8036 9.0737C10.8036 7.80097 9.77189 6.76923 8.49916 6.76923C7.22644 6.76923 6.19469 7.80097 6.19469 9.0737C6.19469 10.3464 7.22644 11.3782 8.49916 11.3782Z" fill="#575757"/>
  <path d="M8.63251 7.29907C8.29713 7.23873 7.96302 7.38863 7.65558 7.53536C7.3653 7.6732 7.05596 7.82882 6.90479 8.11212C6.74535 8.41256 6.80443 8.77716 6.74853 9.11254C6.71486 9.31517 6.63991 9.53304 6.73138 9.71661C6.80379 9.86143 6.9645 9.94528 7.04326 10.0869C7.10424 10.1955 7.10995 10.3264 7.1487 10.4445C7.20333 10.6116 7.32782 10.7545 7.48535 10.832C7.64288 10.9095 7.83217 10.9203 7.99795 10.8612C8.15484 10.8053 8.29586 10.6891 8.46228 10.6878C8.57788 10.6872 8.68586 10.7424 8.79956 10.7609C8.97742 10.7901 9.16035 10.7259 9.30645 10.6211C9.45254 10.5163 9.56624 10.3728 9.67105 10.226C9.77522 10.0793 9.8724 9.92749 9.96895 9.77568C10.0604 9.63276 10.1525 9.48794 10.2116 9.32914C10.3355 8.99821 10.3056 8.61392 10.1328 8.30585C9.96768 8.01176 9.71297 7.85677 9.41125 7.73227C9.12923 7.61667 8.95391 7.35687 8.63251 7.29907Z" fill="url(#paint1_radial_157_945)"/>
  <path opacity="0.43" d="M8.49996 8.048C9.11546 8.048 9.51182 8.42023 9.51182 9.03573C9.51182 9.65123 9.21074 9.90784 8.60858 10.0355C7.98228 10.1683 7.45253 9.63916 7.45253 9.02366C7.45253 8.40816 7.88446 8.048 8.49996 8.048Z" fill="#E6DDD6"/>
  <path d="M8.50332 9.93565C9.00532 9.93565 9.41228 9.5287 9.41228 9.0267C9.41228 8.52469 9.00532 8.11774 8.50332 8.11774C8.00132 8.11774 7.59436 8.52469 7.59436 9.0267C7.59436 9.5287 8.00132 9.93565 8.50332 9.93565Z" fill="url(#paint2_radial_157_945)"/>
  <defs>
    <radialGradient id="paint0_radial_157_945" cx="0" cy="0" r="1" gradientUnits="userSpaceOnUse" gradientTransform="translate(11.8429 12.3912) rotate(-135.583) scale(1.41368 0.283595)">
      <stop/>
      <stop offset="1" stop-color="#504F4F"/>
    </radialGradient>
    <radialGradient id="paint1_radial_157_945" cx="0" cy="0" r="1" gradientUnits="userSpaceOnUse" gradientTransform="translate(8.48738 9.09215) rotate(90) scale(1.80329)">
      <stop stop-color="white"/>
      <stop offset="0.4787" stop-color="#FDFDFD"/>
      <stop offset="0.6903" stop-color="#F8F6F6"/>
      <stop offset="0.8488" stop-color="#EEEBE9"/>
      <stop offset="0.9808" stop-color="#E1DAD7"/>
      <stop offset="1" stop-color="#DED7D4"/>
    </radialGradient>
    <radialGradient id="paint2_radial_157_945" cx="0" cy="0" r="1" gradientUnits="userSpaceOnUse" gradientTransform="translate(7.97655 8.75992) scale(1.192)">
      <stop offset="0.0049261" stop-color="#FDBF00"/>
      <stop offset="0.167" stop-color="#FCB70B"/>
      <stop offset="0.5553" stop-color="#FBA822"/>
      <stop offset="0.8029" stop-color="#FAA32A"/>
      <stop offset="1" stop-color="#FC923B"/>
    </radialGradient>
  </defs>
</svg>