<svg xmlns="http://www.w3.org/2000/svg" width="20" height="16" viewBox="0 0 20 16" fill="none">
  <path d="M3.77576 14.902C3.45481 15.1765 2.96927 15.1405 2.72227 14.7979C2.04474 13.8584 1.54841 12.7979 1.2615 11.6709C0.911563 10.2964 0.88251 8.85988 1.17658 7.47237C1.47066 6.08486 2.07998 4.78359 2.9574 3.66924C3.83483 2.55489 4.95685 1.65731 6.23666 1.04595C7.51646 0.434596 8.91975 0.125842 10.338 0.143576C11.7562 0.16131 13.1513 0.505056 14.4154 1.14822C15.6796 1.79139 16.7788 2.71674 17.6281 3.85269C18.3244 4.78407 18.8374 5.83656 19.1426 6.95403C19.2538 7.36141 18.9767 7.76174 18.5615 7.83894C18.1463 7.91614 17.7509 7.64062 17.633 7.23512C17.375 6.34774 16.9591 5.51184 16.4033 4.7684C15.6945 3.82032 14.777 3.04801 13.722 2.51121C12.6669 1.97441 11.5025 1.68751 10.3189 1.67271C9.13518 1.65791 7.96397 1.9156 6.89583 2.42585C5.82768 2.9361 4.89123 3.68523 4.15891 4.61529C3.42659 5.54535 2.91805 6.6314 2.67261 7.78944C2.42717 8.94748 2.45142 10.1465 2.74348 11.2936C2.9725 12.1932 3.36138 13.042 3.88954 13.8003C4.13089 14.1468 4.09671 14.6276 3.77576 14.902Z" fill="#65B473"/>
</svg>