<svg width="130" height="21" viewBox="0 0 130 21" fill="none" xmlns="http://www.w3.org/2000/svg">
<g opacity="0.7">
<path d="M93.1507 13.236L93.0057 14.0732H89.664C89.3748 14.0732 89.2302 13.9283 89.2302 13.6707C89.2302 13.6385 89.2302 13.5902 89.246 13.5258L90.0977 8.7278C90.1621 8.42188 90.1941 8.14818 90.1941 7.93886C90.1941 7.63293 90.1139 7.42365 89.8567 7.31093L89.8729 7.21432H91.4956L90.435 13.2199H93.1507V13.236Z" fill="#636363"/>
<path d="M95.6729 9.20965L94.8212 14.0881H93.7927L94.4515 10.3045C94.4839 10.1274 94.4997 9.96637 94.4997 9.83758C94.4997 9.56384 94.4195 9.38675 94.1786 9.30625L94.1944 9.20965H95.6729ZM95.9297 7.92161C95.8977 8.25972 95.6085 8.53342 95.2712 8.53342C94.9658 8.53342 94.7407 8.29191 94.7407 7.98598C94.7407 7.96991 94.7407 7.95379 94.7407 7.92161C94.7731 7.59957 95.0622 7.32587 95.3834 7.32587C95.7049 7.32587 95.9458 7.56738 95.9458 7.8733C95.9297 7.8733 95.9297 7.90549 95.9297 7.92161Z" fill="#636363"/>
<path d="M101.006 11.595C100.813 12.8831 99.8008 14.2033 97.857 14.2033C97.3747 14.2033 96.8446 14.1228 96.4428 13.9618C96.2663 13.8813 96.1537 13.7525 96.1537 13.5271C96.1537 13.4949 96.1537 13.4466 96.1699 13.3822L97.0535 8.35879C97.0855 8.19777 97.1017 8.05286 97.1017 7.92407C97.1017 7.63426 97.0211 7.45712 96.7644 7.37663L96.7802 7.26392H98.2425L97.6962 10.3875L97.1981 13.2534C97.4552 13.3661 97.712 13.3822 98.0174 13.3822H98.0335C99.0459 13.3822 99.7688 12.6738 99.9454 11.6433L99.9616 11.5789C99.9936 11.4179 100.01 11.273 100.01 11.1281C100.01 10.4197 99.6562 9.92053 98.901 9.92053C98.66 9.92053 98.4353 9.98495 98.2263 10.0977C98.1461 10.0171 98.0979 9.88834 98.0979 9.75955C98.0979 9.74344 98.0979 9.72732 98.0979 9.69514C98.1137 9.53412 98.2263 9.35702 98.4029 9.27653C98.66 9.13162 98.9492 9.08332 99.2869 9.08332C100.443 9.08332 101.07 9.87223 101.07 11.0476C101.038 11.2086 101.038 11.4018 101.006 11.595Z" fill="#636363"/>
<path d="M104.879 10.0456C104.735 10.0456 104.622 10.0295 104.526 10.0295C104.478 10.0295 104.43 10.0295 104.365 10.0456C103.787 10.11 103.209 10.6253 103 11.8328L102.598 14.0869H101.57L102.244 10.3033C102.276 10.1261 102.293 9.98122 102.293 9.83631C102.293 9.56261 102.212 9.38552 101.955 9.30499L101.971 9.19231H103.401L103.241 10.1422C103.739 9.33721 104.317 9.07959 104.831 9.07959C105.152 9.07959 105.393 9.19231 105.57 9.33721C105.57 9.94903 105.185 10.0456 104.879 10.0456Z" fill="#636363"/>
<path d="M109.958 11.1888C109.926 11.5752 109.701 11.8006 109.347 11.8006H106.76C106.76 11.7523 106.745 11.7201 106.745 11.6718C106.745 11.2854 106.986 11.0922 107.323 11.0922H108.994C109.01 11.0117 109.01 10.9312 109.01 10.8668C109.01 10.2388 108.705 9.88461 108.03 9.88461C107.339 9.88461 106.632 10.3999 106.455 11.4464C106.423 11.6235 106.407 11.7845 106.407 11.9455C106.407 12.8632 106.937 13.3785 107.885 13.3785C108.319 13.3785 108.769 13.298 109.203 13.0243C109.283 13.1047 109.331 13.2336 109.331 13.3463C109.331 13.5395 109.219 13.7327 109.026 13.8776C108.688 14.1191 108.271 14.2157 107.612 14.2157C106.262 14.2157 105.347 13.3624 105.347 12.0582C105.347 11.9294 105.362 11.8006 105.379 11.6396C105.588 10.0778 106.841 9.07959 108.19 9.07959C109.267 9.07959 109.974 9.72363 109.974 10.8829C109.974 10.9795 109.974 11.0922 109.958 11.1888Z" fill="#636363"/>
<mask id="mask0_157_1270" style="mask-type:luminance" maskUnits="userSpaceOnUse" x="109" y="0" width="21" height="21">
<path d="M119.516 0.703125C114.021 0.703125 109.57 5.16302 109.57 10.6695C109.57 16.1759 114.021 20.6358 119.516 20.6358C125.011 20.6358 129.462 16.1759 129.462 10.6695C129.462 5.16302 124.995 0.703125 119.516 0.703125ZM121.733 9.13987C122.392 8.49586 123.324 7.6425 124.095 7.3688C124.432 7.44929 123.726 7.91624 123.533 8.06114C122.971 8.47975 121.492 9.46191 121.492 9.46191C121.492 9.46191 121.492 9.38138 121.733 9.13987ZM117.331 5.24351C117.331 5.22743 117.347 5.21132 117.395 5.21132C117.411 5.21132 117.411 5.21132 117.427 5.21132C117.957 5.29181 118.424 5.45283 119.404 6.91801C119.661 7.30439 120.11 8.44756 120.191 8.65685C120.223 8.73737 120.239 8.94666 120.271 9.10768C120.287 9.18817 120.287 9.23647 120.287 9.2687C120.255 9.23647 120.207 9.17209 120.094 9.05938C119.789 8.73737 119.291 8.18994 119.146 8.01284C118.986 7.81963 118.857 7.6908 118.713 7.5459C118.504 7.33661 118.343 7.15952 118.166 6.88578C118.134 6.83748 118.086 6.75699 118.022 6.66038C117.797 6.32227 117.218 5.43672 117.331 5.24351ZM118.327 7.85182C118.311 7.85182 118.295 7.86794 118.279 7.86794C117.925 7.80352 117.588 7.67473 116.977 7.57812C116.817 7.5459 116.656 7.51371 116.479 7.48152C115.933 7.38491 115.306 7.22389 114.953 7.20782C114.663 7.17559 114.567 7.0951 114.551 6.75699C114.535 6.45106 114.583 6.27396 114.68 6.16125C114.744 6.08076 114.856 6.04857 115.001 6.04857C115.017 6.04857 115.049 6.04857 115.065 6.04857C115.885 6.04857 116.977 6.62819 117.556 6.96631C117.749 7.06291 117.845 7.17559 117.957 7.3205C117.989 7.35269 118.006 7.38491 118.038 7.4171C118.054 7.43322 118.086 7.4654 118.118 7.51371C118.166 7.57812 118.327 7.77133 118.327 7.81963C118.343 7.80352 118.343 7.85182 118.327 7.85182ZM117.186 5.93585C117.25 6.06464 117.315 6.20955 117.395 6.35446C116.833 6.04857 115.852 5.69434 114.985 5.59773C114.953 5.59773 114.824 5.56555 114.84 5.30792C114.856 5.1469 114.921 4.98592 115.017 4.85709C115.098 4.76049 115.242 4.63169 115.467 4.63169C116.528 4.69611 116.833 5.17913 117.186 5.93585ZM114.985 2.66742C115.339 2.84451 116.415 3.47244 116.126 3.68176C115.949 3.82667 114.68 4.40629 114.615 4.06818C114.551 3.77837 114.519 3.55293 114.391 3.08602C114.278 2.66742 114.776 2.5547 114.985 2.66742ZM113.555 12.3278C113.748 11.8609 114.005 11.2652 114.68 11.233C114.792 11.233 114.937 11.2169 115.13 11.2169C115.885 11.2169 117.074 11.2813 117.363 11.2974C117.074 11.5228 116.335 11.9253 116.046 12.0058C115.804 12.0541 115.483 12.1024 115.162 12.1507C114.583 12.2473 113.924 12.3439 113.475 12.4888C113.507 12.4566 113.539 12.3922 113.555 12.3278ZM117.283 10.927C116.64 10.927 115.981 10.8949 115.435 10.8627C115.081 10.8466 114.776 10.8304 114.551 10.8304C114.889 10.2508 115.339 9.97712 115.981 9.97712C115.997 9.97712 116.029 9.97712 116.046 9.97712C116.078 9.97712 116.126 9.97712 116.158 9.97712C116.672 9.97712 119.259 10.4601 119.419 10.4923C119.58 10.5246 119.613 10.5729 119.596 10.6372C119.163 10.8304 118.407 10.927 117.283 10.927ZM119.564 11.0881C119.387 11.4101 118.954 11.6355 118.504 11.877C118.263 12.0058 118.022 12.1346 117.813 12.2795C117.668 12.3761 117.443 12.5532 117.17 12.7948C117.154 12.8108 117.154 12.8108 117.154 12.8108C116.961 12.9557 116.399 13.0362 115.981 13.0362C115.852 13.0362 115.772 13.0362 115.724 13.0201C115.837 12.8752 116.27 12.3922 116.383 12.3278C116.399 12.3278 117.781 11.5228 117.861 11.4745C117.974 11.4101 118.472 11.3135 118.889 11.233C119.146 11.1847 119.387 11.1364 119.564 11.0881ZM113.073 13.9057C113.105 13.7769 113.17 13.4066 113.282 13.1812C113.459 12.8269 114.262 12.7142 114.969 12.6015C115.226 12.5693 115.483 12.521 115.676 12.4888C115.644 12.5371 115.58 12.6176 115.515 12.682C115.322 12.9235 115.258 13.004 115.242 13.0362C115.081 13.0846 114.359 13.3744 113.105 13.8896C113.105 13.8896 113.089 13.9057 113.073 13.9057ZM114.487 15.1937C113.844 15.1454 113.491 14.8073 113.346 14.598C113.218 14.437 113.185 14.2921 113.185 14.2599C113.298 14.1633 115.098 13.4871 115.274 13.4388C115.403 13.4066 115.548 13.3905 115.676 13.3905C115.724 13.3905 115.788 13.3905 115.837 13.3905C115.901 13.3905 115.965 13.3905 116.013 13.3905C116.142 13.3905 116.302 13.3905 116.447 13.3583C116.27 13.5032 116.126 13.6642 115.949 13.8574C115.804 14.0184 115.644 14.1955 115.419 14.4048C115.29 14.5175 115.178 14.6463 115.098 14.759C114.889 15.0166 114.728 15.1937 114.487 15.1937ZM118.713 12.2634C118.697 12.2956 118.697 12.3278 118.68 12.3439C118.23 12.8591 117.636 13.5192 117.026 14.115C116.479 14.6624 115.772 15.3225 115.467 15.3387C115.451 15.3387 115.451 15.3387 115.435 15.3387C115.403 15.3387 115.371 15.3225 115.354 15.2903C115.322 15.2098 115.354 15.081 115.387 15.0327C116.415 13.8896 117.941 12.5049 118.745 12.1507C118.729 12.199 118.713 12.2312 118.713 12.2634ZM119.725 13.4226C119.725 13.4066 119.741 13.3905 119.757 13.4066C119.548 14.3404 119.484 15.7734 119.13 16.3852C118.937 15.4191 119.387 14.3726 119.725 13.4226ZM119.677 16.7233C119.613 16.8521 119.58 16.8521 119.516 16.8843C119.484 16.9004 119.484 16.8843 119.468 16.8199C119.355 16.4818 119.628 14.8234 119.902 14.1311C119.902 14.115 119.918 14.115 119.918 14.1311C119.918 14.8395 119.853 16.1276 119.677 16.7233ZM119.741 9.8644C119.725 9.8644 119.725 9.8644 119.741 9.8644C119.677 9.8644 119.613 9.84832 119.532 9.84832C119.371 9.83221 118.102 9.55851 116.977 9.317C116.174 9.13987 115.467 8.99496 115.29 8.96277C115.049 8.91447 114.808 8.88228 114.648 8.85005C114.391 8.80175 114.359 8.57635 114.391 8.14163C114.391 8.07722 114.391 8.02892 114.391 7.96454C114.391 7.65861 114.551 7.52982 114.856 7.52982C114.905 7.52982 114.969 7.52982 115.033 7.5459C115.29 7.57812 118.118 8.12552 118.439 8.22213C118.793 8.33484 119.259 8.67296 119.58 9.04326C119.709 9.20428 119.805 9.30089 119.885 9.38138C119.998 9.51021 120.046 9.55851 120.094 9.639C120.11 9.65511 120.11 9.67119 120.11 9.6873C120.078 9.71949 119.95 9.8161 119.934 9.83221C119.902 9.84832 119.821 9.8644 119.741 9.8644ZM120.062 16.6589C119.95 16.5623 120.03 15.4836 120.062 14.9844C120.126 13.9862 120.159 13.2134 120.432 12.2795C120.4 12.988 120.448 13.7608 120.496 14.4853C120.608 15.4513 120.544 15.9988 120.062 16.6589ZM120.817 15.1937C120.802 15.0971 120.48 12.9074 120.657 11.6355C120.769 11.9575 121.38 13.2777 121.396 13.7608C121.412 14.115 121.123 15.0649 120.817 15.1937ZM121.637 13.3744C121.444 12.9718 120.641 11.3296 120.882 10.8627C120.882 10.8627 120.898 10.8466 120.914 10.8466C120.93 10.8466 120.946 10.8627 120.946 10.8627C121.235 11.0881 121.701 11.716 121.782 12.1668C121.846 12.521 121.83 13.1329 121.637 13.3744ZM122.954 11.2974C122.489 11.2491 122.295 10.9432 121.926 10.7016C121.187 10.2347 121.026 10.1542 121.171 10.0093C121.283 9.89662 121.878 9.57458 122.054 9.5907C122.408 9.639 123.484 10.3313 123.549 10.5729C123.613 10.8627 123.356 11.3135 122.954 11.2974ZM124.111 10.0415C123.951 10.2186 123.838 10.283 123.661 10.1703C123.356 9.94493 122.778 9.67119 122.295 9.42968C122.119 9.34919 122.826 8.89835 123.067 8.88228C123.163 8.88228 124.176 9.12379 124.304 9.15598C124.738 9.23647 124.256 9.8644 124.111 10.0415ZM124.85 8.85005C124.481 8.93058 123.774 8.80175 123.26 8.64077C123.613 8.35096 124.368 7.72303 124.947 7.7391C125.879 7.70692 125.461 8.62466 124.85 8.85005ZM126.152 7.30438C125.959 7.38491 125.236 7.06291 125.461 6.78918C125.686 6.51548 126.827 6.14517 127.26 6.17736C127.855 6.20955 126.602 7.12729 126.152 7.30438Z" fill="white"/>
</mask>
<g mask="url(#mask0_157_1270)">
<path d="M122.248 13.2127C122.248 13.2127 124.964 11.4899 125.911 11.184C126.843 10.862 128.289 10.3307 128.402 10.7171C128.514 11.1035 127.679 11.9729 126.892 12.4881C126.088 13.0034 124.947 13.9211 124.369 14.5491C123.758 15.1769 123.742 15.2092 123.517 15.2253C123.277 15.2414 122.987 15.1126 122.987 15.1126C122.987 15.1126 122.473 16.5777 121.284 17.7048C120.031 18.8479 119.452 19.0894 119.275 19.0894C119.099 19.0894 118.536 18.6708 118.697 18.0912C118.858 17.5277 120.304 15.5473 120.304 15.5473C120.304 15.5473 116.384 17.7531 115.757 17.8014C115.13 17.8497 115.162 17.8819 114.745 17.8175C114.327 17.737 114.086 17.737 114.086 17.737L113.845 17.4311C113.845 17.4311 113.443 17.3345 113.331 17.2056C113.218 17.0768 113.315 16.8192 113.331 16.6421C113.331 16.4811 113.267 16.3684 113.267 16.3684C113.267 16.3684 113.523 15.499 114.568 14.5329C115.58 13.5669 115.998 13.4059 116.158 13.3415C116.319 13.2771 116.625 13.1483 116.625 13.1483C116.625 13.1483 116.367 13.1483 116.175 12.939C115.982 12.7296 116.657 11.7153 117.01 10.9264C117.364 10.1374 117.412 9.33242 117.749 8.64008C118.087 7.94777 118.247 7.67404 118.633 7.65796C119.003 7.65796 120.416 7.65796 121.348 10.0891C122.553 12.5042 122.248 13.2127 122.248 13.2127Z" fill="black" fill-opacity="0.15"/>
</g>
<path d="M128.032 5.48947C127.727 5.07087 126.056 5.76321 124.803 6.53605C123.63 7.24446 122.264 8.09779 121.188 9.41806C121.172 9.43414 121.188 9.40195 121.188 9.36976C121.252 9.17655 121.139 9.04776 121.043 9.03164C120.754 8.98334 120.706 9.27315 120.706 9.27315H120.689C120.24 5.85982 116.705 1.77025 114.086 1.65753C113.524 1.62534 113.042 2.04395 113.106 2.63968C113.283 4.47513 113.877 5.85982 113.652 7.59869C113.475 9.04776 112.977 9.40195 114.681 9.48244C114.713 9.48244 114.745 9.49855 114.745 9.49855C114.648 9.51466 114.487 9.54685 114.343 9.59516C114.022 9.67565 113.748 9.98157 113.507 10.4646C112.817 11.7849 111.483 13.572 112.929 15.3109C113.893 16.4701 115.676 16.1481 116.351 15.6651C117.38 14.9084 118.794 13.2983 119.372 12.6382H119.388C119.292 12.7992 119.485 12.9441 119.597 12.7992C119.597 12.7992 119.645 12.7992 119.629 12.8314C119.34 13.4915 117.685 17.6294 119.902 17.5811C120.529 17.565 122.505 14.1677 122.328 12.7509C122.28 12.3967 122.2 11.9781 122.2 11.9781C122.537 12.3323 123.132 12.3645 123.421 11.8975C125.365 8.62911 128.852 6.60042 128.032 5.48947ZM121.734 9.14432C122.393 8.50032 123.325 7.64699 124.096 7.37326C124.433 7.45379 123.726 7.92069 123.534 8.0656C122.971 8.48421 121.493 9.46636 121.493 9.46636C121.493 9.46636 121.493 9.38583 121.734 9.14432ZM117.331 5.24796C117.331 5.23189 117.348 5.21577 117.396 5.21577C117.412 5.21577 117.412 5.21577 117.428 5.21577C117.958 5.29627 118.424 5.45729 119.404 6.92246C119.661 7.30888 120.111 8.45202 120.191 8.66134C120.224 8.74183 120.24 8.95115 120.272 9.11213C120.288 9.19266 120.288 9.24096 120.288 9.27315C120.256 9.24096 120.208 9.17655 120.095 9.06383C119.79 8.74183 119.292 8.19439 119.147 8.0173C118.987 7.82409 118.858 7.6953 118.713 7.55039C118.504 7.34107 118.344 7.16397 118.167 6.89024C118.135 6.84193 118.087 6.76144 118.022 6.66484C117.798 6.32672 117.219 5.44117 117.331 5.24796ZM118.328 7.85628C118.312 7.85628 118.296 7.87239 118.28 7.87239C117.926 7.80798 117.589 7.67918 116.978 7.58258C116.817 7.55039 116.657 7.51816 116.48 7.48597C115.934 7.38937 115.307 7.22835 114.954 7.21228C114.664 7.18005 114.568 7.09956 114.552 6.76144C114.536 6.45552 114.584 6.27842 114.681 6.1657C114.745 6.08521 114.857 6.05302 115.002 6.05302C115.018 6.05302 115.05 6.05302 115.066 6.05302C115.885 6.05302 116.978 6.63265 117.556 6.97076C117.749 7.06737 117.846 7.18005 117.958 7.32495C117.99 7.35718 118.006 7.38937 118.039 7.42156C118.054 7.43767 118.087 7.46986 118.119 7.51816C118.167 7.58258 118.328 7.77579 118.328 7.82409C118.344 7.80798 118.344 7.85628 118.328 7.85628ZM117.187 5.94031C117.251 6.0691 117.315 6.21401 117.396 6.35891C116.833 6.05302 115.853 5.6988 114.986 5.60219C114.954 5.60219 114.825 5.57 114.841 5.31238C114.857 5.15136 114.922 4.99038 115.018 4.86155C115.098 4.76494 115.243 4.63615 115.468 4.63615C116.528 4.70056 116.833 5.18359 117.187 5.94031ZM114.986 2.67187C115.339 2.84897 116.416 3.4769 116.126 3.68622C115.95 3.83113 114.681 4.41075 114.616 4.07264C114.552 3.78282 114.52 3.55739 114.391 3.09048C114.279 2.67187 114.777 2.55916 114.986 2.67187ZM113.556 12.3323C113.748 11.8654 114.006 11.2696 114.681 11.2374C114.793 11.2374 114.937 11.2213 115.13 11.2213C115.885 11.2213 117.074 11.2857 117.363 11.3018C117.074 11.5272 116.335 11.9298 116.046 12.0103C115.805 12.0586 115.484 12.1069 115.162 12.1552C114.584 12.2518 113.925 12.3484 113.475 12.4933C113.507 12.4611 113.54 12.3967 113.556 12.3323ZM113.074 13.9102C113.106 13.7813 113.17 13.411 113.283 13.1856C113.459 12.8314 114.263 12.7187 114.97 12.606C115.226 12.5738 115.484 12.5255 115.676 12.4933C115.644 12.5416 115.58 12.6221 115.516 12.6865C115.323 12.928 115.259 13.0085 115.243 13.0407C115.082 13.089 114.359 13.3788 113.106 13.894C113.106 13.894 113.09 13.9102 113.074 13.9102ZM114.487 15.1982C113.845 15.1499 113.491 14.8118 113.347 14.6025C113.218 14.4415 113.186 14.2966 113.186 14.2644C113.298 14.1677 115.098 13.4915 115.275 13.4432C115.403 13.411 115.548 13.3949 115.676 13.3949C115.725 13.3949 115.789 13.3949 115.837 13.3949C115.902 13.3949 115.966 13.3949 116.014 13.3949C116.143 13.3949 116.303 13.3949 116.448 13.3627C116.271 13.5076 116.126 13.6686 115.95 13.8619C115.805 14.0228 115.644 14.2 115.42 14.4093C115.291 14.522 115.178 14.6508 115.098 14.7635C114.889 15.0211 114.729 15.1982 114.487 15.1982ZM118.713 12.2679C118.697 12.3001 118.697 12.3323 118.681 12.3484C118.231 12.8636 117.637 13.5237 117.026 14.1194C116.48 14.6669 115.773 15.327 115.468 15.3431C115.452 15.3431 115.452 15.3431 115.435 15.3431C115.403 15.3431 115.371 15.327 115.355 15.2948C115.323 15.2143 115.355 15.0855 115.387 15.0372C116.416 13.894 117.942 12.5094 118.746 12.1552C118.729 12.2035 118.713 12.2357 118.713 12.2679ZM118.504 11.8815C118.263 12.0103 118.022 12.1391 117.813 12.284C117.669 12.3806 117.444 12.5577 117.171 12.7992C117.155 12.8153 117.155 12.8153 117.155 12.8153C116.962 12.9602 116.4 13.0407 115.982 13.0407C115.853 13.0407 115.773 13.0407 115.725 13.0246C115.837 12.8797 116.271 12.3967 116.383 12.3323C116.4 12.3323 117.781 11.5272 117.862 11.4789C117.974 11.4145 118.472 11.3179 118.89 11.2374C119.147 11.1891 119.388 11.1408 119.565 11.1086C119.388 11.4145 118.954 11.64 118.504 11.8815ZM119.597 10.6417C119.163 10.8349 118.408 10.9315 117.283 10.9315C116.641 10.9315 115.982 10.8993 115.435 10.8671C115.082 10.851 114.777 10.8349 114.552 10.8349C114.889 10.2553 115.339 9.98157 115.982 9.98157C115.998 9.98157 116.03 9.98157 116.046 9.98157C116.078 9.98157 116.126 9.98157 116.159 9.98157C116.673 9.98157 119.26 10.4646 119.42 10.4968C119.597 10.5451 119.613 10.5773 119.597 10.6417ZM119.726 13.4271C119.726 13.411 119.741 13.3949 119.758 13.411C119.549 14.3449 119.485 15.7778 119.131 16.3896C118.938 15.4236 119.388 14.3771 119.726 13.4271ZM119.677 16.7278C119.613 16.8566 119.581 16.8566 119.517 16.8888C119.485 16.9049 119.485 16.8888 119.468 16.8244C119.356 16.4862 119.629 14.8279 119.902 14.1356C119.902 14.1194 119.918 14.1194 119.918 14.1356C119.918 14.844 119.854 16.132 119.677 16.7278ZM119.741 9.86886C119.726 9.86886 119.726 9.86886 119.741 9.86886C119.677 9.86886 119.613 9.85278 119.533 9.85278C119.372 9.83667 118.103 9.56297 116.978 9.32146C116.175 9.14432 115.468 8.99945 115.291 8.96723C115.05 8.91893 114.809 8.88674 114.648 8.85451C114.391 8.80621 114.359 8.58081 114.391 8.14609C114.391 8.08171 114.391 8.03341 114.391 7.969C114.391 7.66307 114.552 7.53428 114.857 7.53428C114.905 7.53428 114.97 7.53428 115.034 7.55039C115.291 7.58258 118.119 8.13002 118.44 8.22662C118.794 8.3393 119.26 8.67741 119.581 9.04776C119.709 9.20874 119.806 9.30534 119.886 9.38583C119.999 9.51466 120.047 9.56297 120.095 9.64346C120.111 9.65957 120.111 9.67565 120.111 9.69176C120.079 9.72395 119.95 9.82055 119.935 9.83667C119.902 9.85278 119.822 9.86886 119.741 9.86886ZM120.063 16.6633C119.95 16.5667 120.031 15.488 120.063 14.9889C120.127 13.9907 120.159 13.2178 120.432 12.284C120.4 12.9924 120.449 13.7653 120.497 14.4898C120.609 15.4558 120.545 16.0032 120.063 16.6633ZM120.818 15.1982C120.802 15.1016 120.481 12.9119 120.657 11.64C120.77 11.962 121.38 13.2822 121.397 13.7653C121.413 14.1194 121.124 15.0694 120.818 15.1982ZM121.637 13.3788C121.445 12.9763 120.641 11.334 120.882 10.8671C120.882 10.8671 120.898 10.851 120.915 10.851C120.947 10.851 120.947 10.8671 120.947 10.8671C121.236 11.0925 121.702 11.7204 121.782 12.1713C121.846 12.5255 121.83 13.1373 121.637 13.3788ZM122.955 11.3018C122.489 11.2535 122.296 10.9476 121.927 10.7061C121.188 10.2392 121.027 10.1587 121.172 10.0138C121.284 9.90108 121.878 9.57904 122.055 9.59516C122.409 9.64346 123.485 10.3358 123.55 10.5773C123.614 10.8671 123.357 11.3179 122.955 11.3018ZM124.112 10.046C123.951 10.2231 123.839 10.2875 123.662 10.1748C123.357 9.94938 122.778 9.67565 122.296 9.43414C122.119 9.35364 122.826 8.90285 123.067 8.88674C123.164 8.88674 124.176 9.12825 124.305 9.16044C124.739 9.24093 124.256 9.86886 124.112 10.046ZM124.851 8.85451C124.482 8.93504 123.774 8.80624 123.26 8.64523C123.614 8.35541 124.369 7.72749 124.947 7.7436C125.879 7.71137 125.462 8.62911 124.851 8.85451ZM126.152 7.30888C125.96 7.38937 125.237 7.06737 125.462 6.79363C125.686 6.51993 126.827 6.14963 127.261 6.18182C127.856 6.21401 126.602 7.13175 126.152 7.30888Z" fill="#636363"/>
<path d="M57.562 7.88683C57.2246 7.88683 55.2001 7.88683 55.2001 7.88683V9.99605H57.6263C57.6263 9.99605 57.6584 10.6562 57.1764 10.6562C56.839 10.6562 55.2001 10.6562 55.2001 10.6562V13.9568C55.2001 13.9568 55.0555 14.0695 54.8145 14.0695C54.5574 14.0695 54.4289 13.9568 54.4289 13.9568V7.22672H58.0119C58.0119 7.22672 58.0119 7.88683 57.562 7.88683Z" fill="#636363"/>
<path fill-rule="evenodd" clip-rule="evenodd" d="M59.0233 9.25738C58.959 8.85489 58.4609 8.95149 58.1718 9.0964C58.2521 9.193 58.2199 10.4166 58.236 11.5598C58.236 12.7674 58.236 13.9749 58.236 13.9749C58.236 13.9749 58.3646 14.0876 58.6216 14.0876C58.8787 14.0876 59.0072 13.9749 59.0072 13.9749V9.88531C59.3607 9.33791 60.2605 9.57942 60.2766 9.57942C60.3569 9.57942 60.4051 9.54719 60.4854 9.43451C60.5979 9.27349 60.7586 8.99979 60.7586 8.99979C59.9552 8.85489 59.3125 9.0481 59.0233 9.25738Z" fill="#636363"/>
<path d="M82.466 13.9288C82.466 13.9288 82.466 13.9127 82.45 13.9127C82.4339 13.8644 82.4018 13.8161 82.4018 13.7999C82.3697 13.7195 82.3214 13.5746 82.3214 13.5424C82.2732 13.333 82.2411 12.9466 82.225 12.4958C82.225 12.4797 82.225 12.4475 82.225 12.4314C82.225 11.24 82.225 7.10207 82.225 7.08599H82.209C82.1768 7.08599 81.984 7.06988 81.7751 7.13429C81.5341 7.19867 81.4377 7.35969 81.4377 7.35969V11.6425V12.5924V12.8661V12.8983C81.4538 13.1398 81.4699 13.3652 81.5341 13.5101C81.6145 13.7516 81.7751 13.8966 81.984 14.0093C82.0162 14.0254 82.0322 14.0254 82.0643 14.0415C82.0804 14.0415 82.1286 14.0576 82.1608 14.0576C82.209 14.0576 82.3696 14.0737 82.4178 14.0415C82.45 14.0254 82.466 14.0093 82.466 13.9771C82.4982 13.9932 82.4821 13.961 82.466 13.9288Z" fill="#636363"/>
<path fill-rule="evenodd" clip-rule="evenodd" d="M67.3316 8.97074C67.1387 8.98681 66.8816 9.03511 66.721 9.09953C64.7768 9.79184 64.9054 13.495 67.2512 14.0585C67.8618 14.2034 68.8901 14.0907 69.1632 13.7526C69.2596 13.6077 69.1311 13.5594 69.115 13.5594C69.0026 13.5433 68.8258 13.5594 68.633 13.5916C68.3116 13.6399 67.685 13.6399 67.1227 13.3823C66.4639 13.0925 66.1586 12.2552 66.2229 11.4985H69.8059C69.9505 9.92067 69.0347 8.77753 67.3316 8.97074ZM66.239 10.8867C66.3032 10.3393 66.6246 9.77576 67.1066 9.61474C68.1188 9.24444 69.0026 9.98504 68.9704 10.8867H66.239Z" fill="#636363"/>
<path fill-rule="evenodd" clip-rule="evenodd" d="M84.9413 8.97074C84.7485 8.98681 84.4914 9.03511 84.3308 9.09953C82.3866 9.79184 82.5152 13.495 84.861 14.0585C85.4715 14.2034 86.4999 14.0907 86.773 13.7526C86.8694 13.6077 86.7409 13.5594 86.7248 13.5594C86.6123 13.5433 86.4356 13.5594 86.2428 13.5916C85.9215 13.6399 85.2948 13.6399 84.7324 13.3823C84.0737 13.0925 83.7684 12.2552 83.8327 11.4985H87.4157C87.5603 9.92067 86.6445 8.77753 84.9413 8.97074ZM83.8488 10.8867C83.913 10.3393 84.2183 9.77576 84.7164 9.61474C85.7286 9.24444 86.6123 9.98504 86.5802 10.8867H83.8488Z" fill="#636363"/>
<path fill-rule="evenodd" clip-rule="evenodd" d="M62.4484 8.97074C62.2556 8.98681 61.9985 9.03511 61.8378 9.09953C59.8937 9.79184 60.0223 13.495 62.3681 14.0585C62.9786 14.2034 64.0069 14.0907 64.2801 13.7526C64.3765 13.6077 64.2479 13.5594 64.2319 13.5594C64.1194 13.5433 63.9427 13.5594 63.7499 13.5916C63.4285 13.6399 62.8019 13.6399 62.2395 13.3823C61.5808 13.0925 61.2755 12.2552 61.3398 11.4985H64.9228C65.0674 9.92067 64.1516 8.77753 62.4484 8.97074ZM61.3558 10.8867C61.4201 10.3393 61.7254 9.77576 62.2235 9.61474C63.2357 9.24444 64.1194 9.98504 64.0873 10.8867H61.3558Z" fill="#636363"/>
<path d="M80.9567 9.00282C80.9567 9.00282 80.7799 8.95452 80.539 8.95452C80.298 8.95452 80.1373 9.00282 80.1373 9.00282L78.7715 12.9797L77.4219 9.01893L77.4058 8.95452H75.5581V8.00459C75.5581 8.00459 75.3492 7.9724 75.1082 8.05289C74.8672 8.1173 74.7708 8.27829 74.7708 8.27829V8.95452H73.871C73.871 8.95452 73.8067 9.09942 73.7586 9.26044C73.7103 9.42146 73.7103 9.56637 73.7103 9.56637H73.871H74.7708V12.6416C74.7708 13.0119 74.8029 13.3661 74.8833 13.5754C74.9636 13.8169 75.1243 13.9618 75.3331 14.0745C75.3653 14.0907 75.3813 14.0907 75.4135 14.1067C75.4296 14.1067 75.4778 14.1228 75.5099 14.1228C75.5581 14.1228 75.7187 14.139 75.7669 14.1067C75.7991 14.0907 75.8152 14.0745 75.8152 14.0424C75.8152 14.0262 75.8152 13.9941 75.7991 13.9618C75.7991 13.9618 75.7991 13.9457 75.783 13.9457C75.7669 13.8974 75.7348 13.8491 75.7348 13.833C75.7027 13.7525 75.6545 13.6076 75.6545 13.5754C75.6063 13.3822 75.5741 12.9797 75.5581 12.5289V9.56637H76.7953L78.2413 13.5271C78.2574 13.5432 78.2574 13.5754 78.2735 13.6076C78.3217 13.7364 78.3859 14.0262 78.2895 14.2678C78.1931 14.5415 78.0807 14.8313 77.936 15.0889C77.7432 15.5075 77.5183 15.6846 77.5022 15.7007L77.4862 15.7168C77.4701 15.7329 77.454 15.7651 77.454 15.7812C77.454 15.7973 77.454 15.8295 77.4701 15.8456C77.4862 15.8617 77.5022 15.8778 77.5344 15.8939C77.5665 15.91 77.6468 15.9261 77.7754 15.9261C77.8075 15.9261 78.0485 15.8778 78.2574 15.6685C78.2574 15.6685 78.2574 15.6685 78.2735 15.6685L78.2895 15.6524C78.7394 15.1372 78.9483 14.4448 79.1732 13.833L80.9567 9.00282Z" fill="#636363"/>
<path fill-rule="evenodd" clip-rule="evenodd" d="M73.741 12.8315C73.741 12.8154 73.757 12.7832 73.757 12.7671V12.7509C73.8052 12.5577 73.8374 12.3323 73.8374 12.1069C73.8374 11.8332 73.7891 11.6078 73.6928 11.3824C73.5963 11.1731 73.4518 10.9799 73.2911 10.8189C73.1304 10.6579 72.9537 10.5452 72.793 10.4486C72.6323 10.3519 72.2949 10.1909 71.7968 9.96553C71.122 9.6596 70.7846 9.2893 70.7846 8.88677C70.7846 8.59696 70.881 8.35545 71.0738 8.17835C71.0738 8.17835 71.4915 7.69533 72.5841 7.80805C72.6966 7.82412 72.8091 7.82412 72.8894 7.85635C72.9055 7.85635 72.9055 7.85635 72.9215 7.87242C73.0179 7.88854 73.0983 7.90465 73.1625 7.93684C73.2268 7.95295 73.275 7.95295 73.3072 7.95295C73.3714 7.93684 73.4035 7.88854 73.4196 7.84024C73.4196 7.82412 73.4196 7.82412 73.4196 7.80805V7.79193C73.4196 7.77582 73.4196 7.77582 73.4196 7.77582C73.4196 7.75974 73.4035 7.74363 73.4035 7.72752C73.3714 7.67922 73.3232 7.59872 73.2268 7.51823C72.8572 7.22842 72.1342 7.13182 71.6362 7.19623C71.5719 7.21231 71.5237 7.21231 71.4594 7.22842C71.1541 7.30891 70.881 7.43774 70.64 7.61484C70.2383 7.93684 70.0294 8.37156 70.0294 8.93507C70.0294 9.14439 70.0615 9.3376 70.1419 9.53081C70.2222 9.70791 70.3347 9.86892 70.4632 10.0138C70.6078 10.1587 70.7524 10.2715 70.8971 10.3519C71.0417 10.4324 71.3469 10.5935 71.845 10.8189C72.327 11.0443 72.6484 11.2536 72.8251 11.4629C73.0019 11.6722 73.0822 11.9298 73.0822 12.2357C73.0822 12.6221 72.9537 12.9281 72.7127 13.1535C72.7127 13.1535 72.6966 13.1696 72.6805 13.1857C72.5198 13.3145 71.9575 13.717 70.881 13.6687C70.8006 13.6687 70.7203 13.6526 70.656 13.6526C70.6078 13.6526 70.5757 13.6365 70.5275 13.6365C70.5114 13.6365 70.5114 13.6365 70.5114 13.6365C70.5114 13.6365 70.5114 13.6365 70.4954 13.6365C70.4632 13.6365 70.4472 13.6365 70.415 13.6204C70.3347 13.6043 70.2383 13.6043 70.1901 13.6204C70.1258 13.6365 70.0937 13.6848 70.0776 13.7331C70.0776 13.7492 70.0776 13.7653 70.0776 13.7653V13.7814C70.0776 13.7975 70.0776 13.7975 70.0937 13.7975C70.0937 13.7975 70.0937 13.7975 70.0937 13.8136C70.1419 13.878 70.3829 14.1839 71.1702 14.2483C71.363 14.2644 71.5558 14.2644 71.7486 14.2322C71.7486 14.2322 73.1465 14.2 73.6606 13.0086C73.6767 12.9925 73.6767 12.9603 73.6928 12.9441C73.7088 12.8958 73.7249 12.8637 73.741 12.8315Z" fill="#636363"/>
<path d="M1.65786 13.7383V7.38629H3.80414C4.30245 7.38629 4.70979 7.47624 5.02615 7.65613C5.34458 7.83395 5.5803 8.07484 5.73331 8.37879C5.88632 8.68274 5.96282 9.02185 5.96282 9.3961C5.96282 9.77035 5.88632 10.1105 5.73331 10.4165C5.58236 10.7225 5.34871 10.9665 5.03235 11.1485C4.71599 11.3284 4.31072 11.4183 3.81654 11.4183H2.27817V10.736H3.79173C4.1329 10.736 4.40687 10.677 4.61364 10.5592C4.82041 10.4413 4.97032 10.2821 5.06337 10.0815C5.15848 9.87891 5.20604 9.65043 5.20604 9.3961C5.20604 9.14177 5.15848 8.91432 5.06337 8.71376C4.97032 8.51319 4.81938 8.35604 4.61054 8.24232C4.4017 8.12653 4.12463 8.06863 3.77932 8.06863H2.42704V13.7383H1.65786ZM8.98684 13.8375C8.55676 13.8375 8.1794 13.7352 7.85477 13.5305C7.53221 13.3258 7.27995 13.0394 7.09799 12.6713C6.9181 12.3033 6.82816 11.8732 6.82816 11.3811C6.82816 10.8848 6.9181 10.4517 7.09799 10.0815C7.27995 9.71143 7.53221 9.42401 7.85477 9.21931C8.1794 9.01461 8.55676 8.91226 8.98684 8.91226C9.41692 8.91226 9.79324 9.01461 10.1158 9.21931C10.4404 9.42401 10.6927 9.71143 10.8726 10.0815C11.0545 10.4517 11.1455 10.8848 11.1455 11.3811C11.1455 11.8732 11.0545 12.3033 10.8726 12.6713C10.6927 13.0394 10.4404 13.3258 10.1158 13.5305C9.79324 13.7352 9.41692 13.8375 8.98684 13.8375ZM8.98684 13.18C9.31354 13.18 9.58234 13.0963 9.79324 12.9288C10.0042 12.7613 10.1603 12.5411 10.2616 12.2681C10.3629 11.9952 10.4136 11.6995 10.4136 11.3811C10.4136 11.0627 10.3629 10.766 10.2616 10.491C10.1603 10.2159 10.0042 9.99367 9.79324 9.82412C9.58234 9.65456 9.31354 9.56979 8.98684 9.56979C8.66014 9.56979 8.39134 9.65456 8.18043 9.82412C7.96953 9.99367 7.81342 10.2159 7.7121 10.491C7.61078 10.766 7.56012 11.0627 7.56012 11.3811C7.56012 11.6995 7.61078 11.9952 7.7121 12.2681C7.81342 12.5411 7.96953 12.7613 8.18043 12.9288C8.39134 13.0963 8.66014 13.18 8.98684 13.18ZM13.1801 13.7383L11.7286 8.97429H12.4978L13.5275 12.6217H13.5771L14.5945 8.97429H15.376L16.381 12.6093H16.4306L17.4603 8.97429H18.2295L16.778 13.7383H16.0584L15.0163 10.0784H14.9418L13.8997 13.7383H13.1801ZM21.0325 13.8375C20.5735 13.8375 20.1775 13.7362 19.8446 13.5336C19.5138 13.3289 19.2584 13.0435 19.0785 12.6775C18.9007 12.3095 18.8118 11.8815 18.8118 11.3935C18.8118 10.9055 18.9007 10.4754 19.0785 10.1033C19.2584 9.729 19.5086 9.43745 19.8291 9.22862C20.1517 9.01771 20.528 8.91226 20.9581 8.91226C21.2062 8.91226 21.4512 8.95361 21.6931 9.03632C21.9351 9.11903 22.1553 9.25343 22.3538 9.43952C22.5523 9.62355 22.7105 9.86754 22.8283 10.1715C22.9462 10.4754 23.0051 10.8497 23.0051 11.2943V11.6044H19.3329V10.9717H22.2607C22.2607 10.7029 22.207 10.463 22.0995 10.2521C21.994 10.0412 21.8431 9.87477 21.6466 9.75278C21.4523 9.63078 21.2227 9.56979 20.9581 9.56979C20.6665 9.56979 20.4143 9.64216 20.2013 9.7869C19.9904 9.92957 19.8281 10.1157 19.7144 10.3452C19.6006 10.5747 19.5438 10.8207 19.5438 11.0833V11.5052C19.5438 11.8649 19.6058 12.1699 19.7299 12.4201C19.856 12.6682 20.0307 12.8574 20.254 12.9877C20.4773 13.1159 20.7368 13.18 21.0325 13.18C21.2248 13.18 21.3985 13.1531 21.5536 13.0994C21.7107 13.0435 21.8462 12.9608 21.9599 12.8512C22.0736 12.7396 22.1615 12.601 22.2235 12.4356L22.9307 12.6341C22.8562 12.874 22.7311 13.0849 22.5554 13.2668C22.3796 13.4467 22.1625 13.5873 21.9041 13.6887C21.6456 13.7879 21.3551 13.8375 21.0325 13.8375ZM24.1186 13.7383V8.97429H24.8257V9.69385H24.8753C24.9622 9.45813 25.1193 9.26687 25.3468 9.12006C25.5742 8.97325 25.8306 8.89985 26.116 8.89985C26.1697 8.89985 26.2369 8.90088 26.3176 8.90295C26.3982 8.90502 26.4592 8.90812 26.5006 8.91226V9.65663C26.4757 9.65043 26.4189 9.64112 26.33 9.62872C26.2431 9.61424 26.1511 9.60701 26.0539 9.60701C25.8224 9.60701 25.6156 9.6556 25.4336 9.75278C25.2537 9.84789 25.1111 9.98023 25.0056 10.1498C24.9022 10.3173 24.8505 10.5085 24.8505 10.7236V13.7383H24.1186ZM29.2206 13.8375C28.7616 13.8375 28.3656 13.7362 28.0327 13.5336C27.7019 13.3289 27.4465 13.0435 27.2666 12.6775C27.0888 12.3095 26.9999 11.8815 26.9999 11.3935C26.9999 10.9055 27.0888 10.4754 27.2666 10.1033C27.4465 9.729 27.6967 9.43745 28.0172 9.22862C28.3398 9.01771 28.7161 8.91226 29.1462 8.91226C29.3943 8.91226 29.6393 8.95361 29.8813 9.03632C30.1232 9.11903 30.3434 9.25343 30.5419 9.43952C30.7404 9.62355 30.8986 9.86754 31.0164 10.1715C31.1343 10.4754 31.1932 10.8497 31.1932 11.2943V11.6044H27.521V10.9717H30.4488C30.4488 10.7029 30.3951 10.463 30.2876 10.2521C30.1821 10.0412 30.0312 9.87477 29.8347 9.75278C29.6404 9.63078 29.4109 9.56979 29.1462 9.56979C28.8546 9.56979 28.6024 9.64216 28.3894 9.7869C28.1785 9.92957 28.0162 10.1157 27.9025 10.3452C27.7887 10.5747 27.7319 10.8207 27.7319 11.0833V11.5052C27.7319 11.8649 27.7939 12.1699 27.918 12.4201C28.0441 12.6682 28.2188 12.8574 28.4421 12.9877C28.6654 13.1159 28.9249 13.18 29.2206 13.18C29.4129 13.18 29.5866 13.1531 29.7417 13.0994C29.8988 13.0435 30.0343 12.9608 30.148 12.8512C30.2617 12.7396 30.3496 12.601 30.4116 12.4356L31.1188 12.6341C31.0443 12.874 30.9192 13.0849 30.7435 13.2668C30.5677 13.4467 30.3506 13.5873 30.0922 13.6887C29.8337 13.7879 29.5432 13.8375 29.2206 13.8375ZM34.1056 13.8375C33.7086 13.8375 33.3581 13.7372 33.0542 13.5367C32.7502 13.334 32.5124 13.0487 32.3408 12.6807C32.1692 12.3105 32.0834 11.8732 32.0834 11.3687C32.0834 10.8683 32.1692 10.4341 32.3408 10.066C32.5124 9.69799 32.7512 9.41368 33.0573 9.21311C33.3633 9.01254 33.7169 8.91226 34.118 8.91226C34.4281 8.91226 34.6732 8.96395 34.8531 9.06734C35.035 9.16865 35.1735 9.28444 35.2687 9.41471C35.3658 9.54291 35.4413 9.64836 35.4951 9.73107H35.5571V7.38629H36.2891V13.7383H35.5819V13.0063H35.4951C35.4413 13.0932 35.3648 13.2027 35.2656 13.3351C35.1663 13.4653 35.0247 13.5822 34.8406 13.6856C34.6566 13.7869 34.4116 13.8375 34.1056 13.8375ZM34.2048 13.18C34.4984 13.18 34.7466 13.1035 34.9492 12.9505C35.1518 12.7954 35.3059 12.5814 35.4113 12.3085C35.5168 12.0335 35.5695 11.7161 35.5695 11.3563C35.5695 11.0006 35.5178 10.6894 35.4144 10.4227C35.3111 10.1539 35.158 9.94508 34.9554 9.7962C34.7528 9.64526 34.5026 9.56979 34.2048 9.56979C33.8947 9.56979 33.6362 9.64939 33.4294 9.80861C33.2247 9.96575 33.0707 10.1798 32.9673 10.4506C32.866 10.7194 32.8153 11.0213 32.8153 11.3563C32.8153 11.6954 32.867 12.0035 32.9704 12.2805C33.0759 12.5556 33.2309 12.7747 33.4356 12.9381C33.6424 13.0994 33.8988 13.18 34.2048 13.18ZM40.287 13.7383V7.38629H41.019V9.73107H41.081C41.1347 9.64836 41.2092 9.54291 41.3043 9.41471C41.4015 9.28444 41.54 9.16865 41.7199 9.06734C41.9019 8.96395 42.1479 8.91226 42.4581 8.91226C42.8592 8.91226 43.2128 9.01254 43.5188 9.21311C43.8248 9.41368 44.0636 9.69799 44.2353 10.066C44.4069 10.4341 44.4927 10.8683 44.4927 11.3687C44.4927 11.8732 44.4069 12.3105 44.2353 12.6807C44.0636 13.0487 43.8259 13.334 43.5219 13.5367C43.218 13.7372 42.8675 13.8375 42.4705 13.8375C42.1645 13.8375 41.9194 13.7869 41.7354 13.6856C41.5514 13.5822 41.4097 13.4653 41.3105 13.3351C41.2113 13.2027 41.1347 13.0932 41.081 13.0063H40.9941V13.7383H40.287ZM41.0065 11.3563C41.0065 11.7161 41.0593 12.0335 41.1647 12.3085C41.2702 12.5814 41.4242 12.7954 41.6269 12.9505C41.8295 13.1035 42.0776 13.18 42.3712 13.18C42.6773 13.18 42.9326 13.0994 43.1373 12.9381C43.3441 12.7747 43.4992 12.5556 43.6026 12.2805C43.708 12.0035 43.7607 11.6954 43.7607 11.3563C43.7607 11.0213 43.709 10.7194 43.6057 10.4506C43.5043 10.1798 43.3503 9.96575 43.1435 9.80861C42.9388 9.64939 42.6814 9.56979 42.3712 9.56979C42.0735 9.56979 41.8233 9.64526 41.6207 9.7962C41.418 9.94508 41.265 10.1539 41.1616 10.4227C41.0582 10.6894 41.0065 11.0006 41.0065 11.3563ZM45.9132 15.5248C45.7892 15.5248 45.6785 15.5144 45.5813 15.4938C45.4842 15.4752 45.417 15.4565 45.3797 15.4379L45.5658 14.7928C45.7437 14.8383 45.9008 14.8548 46.0373 14.8424C46.1737 14.83 46.2947 14.769 46.4002 14.6594C46.5077 14.5519 46.6059 14.3772 46.6948 14.1353L46.8313 13.7631L45.0696 8.97429H45.8636L47.1786 12.7706H47.2283L48.5433 8.97429H49.3373L47.3151 14.433C47.2241 14.6791 47.1114 14.8828 46.977 15.044C46.8426 15.2074 46.6865 15.3283 46.5087 15.4069C46.333 15.4855 46.1345 15.5248 45.9132 15.5248Z" fill="#636363"/>
</g>
</svg>
