<svg xmlns="http://www.w3.org/2000/svg" width="19" height="19" viewBox="0 0 19 19" fill="none">
  <circle cx="9.80458" cy="9.33692" r="9.09682" fill="#F3F3F3"/>
  <path d="M9.42339 11.5179C9.33471 11.2847 9.06331 11.1708 8.81867 11.2641L7.53584 11.7518L8.3141 8.98128C8.34162 8.88419 8.33704 8.78404 8.30187 8.69077C8.20784 8.44384 7.92039 8.32305 7.66046 8.42243L5.53133 9.23127C5.41359 9.27561 5.31956 9.36124 5.26528 9.47056C5.20947 9.58371 5.20259 9.70985 5.24617 9.82529C5.33485 10.0592 5.60778 10.1739 5.85395 10.0806L7.09473 9.60893L6.30959 12.3642C6.2813 12.4636 6.28512 12.566 6.32105 12.6608C6.39368 12.8519 6.58098 12.9681 6.78281 12.9681C6.8455 12.9681 6.90972 12.9567 6.97241 12.933L9.14053 12.1088C9.38517 12.0156 9.51207 11.7503 9.42339 11.5179Z" fill="url(#paint0_linear_157_939)"/>
  <path d="M11.9903 9.17001C11.9475 8.91849 11.6975 8.75106 11.4337 8.7954L10.0492 9.03087L11.3787 6.40328C11.4253 6.31078 11.4406 6.2091 11.4238 6.10895C11.3787 5.84214 11.1134 5.66478 10.8328 5.71218L8.53473 6.10436C8.40783 6.12577 8.29621 6.19228 8.21976 6.29243C8.14102 6.39564 8.10967 6.52025 8.13031 6.64487C8.17313 6.89791 8.42465 7.0661 8.68993 7.021L10.0293 6.79318L8.69528 9.40394C8.64711 9.49798 8.63106 9.60195 8.64864 9.70439C8.68381 9.9108 8.84894 10.0645 9.05153 10.1042C9.11422 10.1165 9.18073 10.118 9.24878 10.1065L11.5889 9.70821C11.8527 9.66311 12.0331 9.42153 11.9903 9.17001Z" fill="url(#paint1_linear_157_939)"/>
  <path d="M14.3863 10.1378C14.3725 9.97501 14.2219 9.85422 14.0507 9.86874L13.1532 9.94443L14.1447 8.33821C14.1799 8.28164 14.1952 8.21742 14.1898 8.15321C14.1753 7.98043 14.0155 7.85276 13.8343 7.86805L12.3459 7.99266C12.2641 7.99954 12.1891 8.03624 12.1349 8.09587C12.079 8.15703 12.0523 8.23577 12.0592 8.31604C12.0729 8.47965 12.2243 8.6012 12.3963 8.58668L13.264 8.51328L12.2702 10.108C12.2342 10.1654 12.2182 10.2311 12.2243 10.2969C12.2358 10.4306 12.3329 10.5377 12.4598 10.5744C12.4995 10.5858 12.5416 10.5904 12.5851 10.5866L14.1011 10.4589C14.2724 10.4452 14.4001 10.3007 14.3863 10.1378Z" fill="url(#paint2_linear_157_939)"/>
  <defs>
    <linearGradient id="paint0_linear_157_939" x1="7.33489" y1="6.60465" x2="7.33489" y2="12.6954" gradientUnits="userSpaceOnUse">
      <stop stop-color="#4FC3F7"/>
      <stop offset="1" stop-color="#1E88E5"/>
    </linearGradient>
    <linearGradient id="paint1_linear_157_939" x1="10.0604" y1="6.60455" x2="10.0604" y2="12.6953" gradientUnits="userSpaceOnUse">
      <stop stop-color="#4FC3F7"/>
      <stop offset="1" stop-color="#1E88E5"/>
    </linearGradient>
    <linearGradient id="paint2_linear_157_939" x1="13.2226" y1="6.60606" x2="13.2226" y2="12.6968" gradientUnits="userSpaceOnUse">
      <stop stop-color="#4FC3F7"/>
      <stop offset="1" stop-color="#1E88E5"/>
    </linearGradient>
  </defs>
</svg>