<svg xmlns="http://www.w3.org/2000/svg" width="19" height="19" viewBox="0 0 19 19" fill="none">
  <circle cx="9.80458" cy="9.51842" r="9.09682" fill="#F3F3F3"/>
  <path d="M10.3979 13.5342C9.57896 13.5342 8.36803 13.5109 7.31431 13.3097C5.90705 13.0413 5.80203 12.4887 5.81507 11.9457C5.82605 11.4837 6.03748 9.93714 6.24617 9.30422C6.56194 8.34729 7.04453 7.39585 7.33833 6.98671C7.74129 6.42587 8.76275 5.52454 9.7897 5.49365H9.79931C9.93523 5.49365 10.0705 5.58289 10.1515 5.72636L10.553 6.4348C10.6492 6.60504 10.6471 6.81441 10.5476 6.98191C10.4659 7.1192 10.2284 7.15627 10.2263 7.15696L10.0375 7.18441L10.1645 7.32789C10.1638 7.32789 10.2064 7.39516 10.1062 7.54069C10.0169 7.67043 9.84324 7.7329 9.57621 7.7329C9.32565 7.7329 9.04008 7.67592 8.8108 7.63062C8.79707 7.62787 8.78266 7.6265 8.76824 7.6265C8.68312 7.6265 8.59525 7.67386 8.51562 7.7631C8.41265 7.87774 8.08795 8.34385 8.21975 9.52526C8.28497 10.1115 8.0907 10.6394 8.08864 10.6449L8.00695 10.8632L8.22319 10.7767C8.22525 10.7753 8.55475 10.6463 9.00782 10.6463H9.05587L9.08676 10.6092C9.09637 10.5975 10.0437 9.47789 11.2732 9.47789C12.0763 9.47789 12.8452 9.80328 13.3298 10.3483C13.6717 10.7328 13.8316 11.1879 13.7794 11.6293C13.5776 13.3441 11.9596 13.5294 11.2732 13.5294C11.177 13.5294 11.0645 13.5301 10.9388 13.5315C10.7789 13.5328 10.597 13.5342 10.3979 13.5342Z" fill="url(#paint0_linear_157_1041)"/>
  <path d="M9.80283 5.59608C9.9003 5.59608 10.0033 5.66678 10.0657 5.77662L10.4673 6.48505C10.5456 6.62303 10.5435 6.79327 10.4632 6.92919C10.4241 6.99509 10.2916 7.04314 10.2161 7.05481L9.83646 7.10836L10.0726 7.37471C10.0719 7.38844 10.0644 7.42345 10.0246 7.48111C9.95659 7.57927 9.80694 7.62939 9.57904 7.62939C9.33878 7.62939 9.0587 7.57378 8.83422 7.52916C8.81363 7.52504 8.79235 7.52298 8.77176 7.52298C8.69144 7.52298 8.56856 7.5525 8.44225 7.69391C8.14913 8.02136 8.029 8.70988 8.1203 9.5357C8.18208 10.0938 7.99674 10.6032 7.99468 10.608L7.83267 11.0411L8.26377 10.8716C8.26583 10.8695 8.57955 10.748 9.01065 10.748H9.10744L9.16922 10.6739C9.17814 10.6629 10.0973 9.57963 11.2767 9.57963C12.051 9.57963 12.791 9.89197 13.2564 10.4157C13.5784 10.7782 13.7294 11.2045 13.6807 11.6164C13.6058 12.2507 13.3237 12.7271 12.8411 13.0339C12.3304 13.3572 11.7085 13.4252 11.276 13.4252C11.1799 13.4252 11.0673 13.4259 10.941 13.4273C10.781 13.4286 10.5991 13.43 10.4014 13.43C9.58659 13.43 8.38184 13.4067 7.33704 13.2076C6.72129 13.0902 6.32176 12.9124 6.11376 12.6646C5.9346 12.4511 5.91606 12.1937 5.92155 11.9472C5.93254 11.4901 6.14122 9.96062 6.34785 9.33594C6.64921 8.42294 7.13248 7.45502 7.42628 7.04658C7.81757 6.50152 8.80745 5.62628 9.79665 5.59676L9.80283 5.59608ZM9.80283 5.39014H9.79047C8.70517 5.4224 7.65556 6.37247 7.25879 6.92576C6.95606 7.34793 6.46661 8.31928 6.15221 9.27072C5.94489 9.89952 5.72728 11.4516 5.71561 11.9418C5.7012 12.541 5.84261 13.1314 7.2986 13.4094C8.33448 13.6071 9.52755 13.636 10.4014 13.636C10.7563 13.636 11.0584 13.6311 11.276 13.6311C12.443 13.6311 13.7054 13.165 13.8845 11.6404C14.0218 10.4734 12.7862 9.37369 11.276 9.37369C9.98199 9.37369 9.01065 10.5421 9.01065 10.5421C8.53012 10.5421 8.18689 10.6793 8.18689 10.6793C8.18689 10.6793 8.39283 10.1302 8.32418 9.51236C8.18757 8.28084 8.55758 7.72824 8.77107 7.72824C8.77862 7.72824 8.78617 7.72892 8.79372 7.7303C9.03124 7.77766 9.31955 7.83464 9.57904 7.83464C9.83852 7.83464 10.0692 7.77766 10.1934 7.59781C10.3479 7.37471 10.2442 7.25801 10.2442 7.25801C10.2442 7.25801 10.5305 7.21751 10.6396 7.03353C10.7584 6.83377 10.7611 6.58527 10.6465 6.38276L10.2442 5.67433C10.1529 5.51301 9.98748 5.39014 9.80283 5.39014Z" fill="#EDA600"/>
  <path d="M9.74806 6.38925C9.57576 6.35699 9.3705 6.35012 9.21056 6.43113C9.01217 6.53204 8.94284 6.79358 9.05816 6.98373C9.23115 7.26724 9.69864 7.2947 9.9945 7.28303C10.1263 7.27754 10.127 7.0716 9.9945 7.07709C9.78101 7.08533 9.51466 7.07434 9.32863 6.96108C9.19546 6.87939 9.15015 6.69267 9.31421 6.60961C9.41993 6.55538 9.5785 6.56705 9.69246 6.58833C9.82289 6.61167 9.87849 6.41328 9.74806 6.38925Z" fill="#EDA600"/>
  <path d="M7.92462 10.7978C7.59512 11.2776 7.51 11.7602 7.6267 12.3286C7.65347 12.4583 7.85186 12.4034 7.82509 12.2737C7.71937 11.7575 7.80312 11.3373 8.10242 10.9014C8.17793 10.7923 7.99945 10.6893 7.92462 10.7978Z" fill="#EDA600"/>
  <path d="M8.72105 7.5179C8.56847 7.49591 8.3506 7.31103 8.25987 7.11583C8.23238 7.05673 8.24406 6.97287 8.13616 6.96669C7.98701 6.95844 8.09629 7.2581 8.14715 7.33165C8.28668 7.53165 8.47568 7.64368 8.72311 7.66155C8.85576 7.67117 8.85714 7.53715 8.72105 7.5179Z" fill="#EDA600"/>
  <path d="M9.11718 11.4657C9.29017 12.1803 9.93819 12.713 10.6528 12.8098C11.3427 12.9031 12.5014 12.7432 12.8412 12.0052C12.8962 11.8858 12.7191 11.7808 12.6635 11.9016C12.3525 12.5778 11.2425 12.7054 10.6192 12.5983C10.0089 12.4933 9.46384 12.0238 9.31625 11.4114C9.28467 11.2824 9.08629 11.3366 9.11718 11.4657Z" fill="#EDA600"/>
  <defs>
    <linearGradient id="paint0_linear_157_1041" x1="9.80171" y1="12.994" x2="9.80171" y2="6.41077" gradientUnits="userSpaceOnUse">
      <stop stop-color="#FFB300"/>
      <stop offset="0.4007" stop-color="#FFCA28"/>
    </linearGradient>
  </defs>
</svg>